<svg xmlns="http://www.w3.org/2000/svg" width="13" height="13" viewBox="0 0 13 13">
  <g id="checkbox" transform="translate(-455 -468.74)">
    <g id="Path_18168" data-name="Path 18168" transform="translate(455 468.74)" fill="none">
      <path d="M3,0h7a3,3,0,0,1,3,3v7a3,3,0,0,1-3,3H3a3,3,0,0,1-3-3V3A3,3,0,0,1,3,0Z" stroke="none"/>
      <path d="M 3 0.5 C 1.621500015258789 0.5 0.5 1.621500015258789 0.5 3 L 0.5 10 C 0.5 11.37849998474121 1.621500015258789 12.5 3 12.5 L 10 12.5 C 11.37849998474121 12.5 12.5 11.37849998474121 12.5 10 L 12.5 3 C 12.5 1.621500015258789 11.37849998474121 0.5 10 0.5 L 3 0.5 M 3 0 L 10 0 C 11.65684986114502 0 13 1.34315013885498 13 3 L 13 10 C 13 11.65684986114502 11.65684986114502 13 10 13 L 3 13 C 1.34315013885498 13 0 11.65684986114502 0 10 L 0 3 C 0 1.34315013885498 1.34315013885498 0 3 0 Z" stroke="none" fill="#51b7e7"/>
    </g>
    <path id="checked_7_" data-name="checked (7)" d="M0,69.145,3.957,73.11l7.6-7.591-1.091-1.076-6.508,6.5L1.076,68.062Z" transform="translate(455.723 406.89)" fill="#fff"/>
  </g>
</svg>
