<svg id="BuildrOPstooltip" xmlns="http://www.w3.org/2000/svg" width="92.786" height="14.7" viewBox="0 0 92.786 14.7">
  <rect id="Rectangle_2575" data-name="Rectangle 2575" width="40.56" height="14.7" rx="2" transform="translate(52.226)" fill="#fff"/>
  <path id="Path_19199" data-name="Path 19199" d="M.89-7a.212.212,0,0,0-.24.24V-.24A.212.212,0,0,0,.89,0H7.17C8.48,0,9.21-.46,9.21-1.74v-.15A1.476,1.476,0,0,0,8.1-3.51a1.491,1.491,0,0,0,1.03-1.6v-.15C9.13-6.54,8.4-7,7.09-7ZM6.97-3.03c.81,0,1.16.28,1.16.95v.18c0,.68-.31.95-1.1.95H1.73V-3.03ZM1.73-6.05H6.94c.79,0,1.11.27,1.11.95v.17c0,.67-.36.95-1.17.95H1.73ZM18.81-2.04V-6.76A.212.212,0,0,0,18.57-7h-.59a.219.219,0,0,0-.25.24v4.6A1.083,1.083,0,0,1,16.52-.95H12.49a1.083,1.083,0,0,1-1.21-1.21v-4.6A.212.212,0,0,0,11.04-7h-.59a.219.219,0,0,0-.25.24v4.72A1.849,1.849,0,0,0,12.24,0h4.54A1.846,1.846,0,0,0,18.81-2.04Zm2.33-4.72A.219.219,0,0,0,20.89-7H20.3a.212.212,0,0,0-.24.24V-.24A.212.212,0,0,0,20.3,0h.59a.219.219,0,0,0,.25-.24Zm2.33,4.6v-4.6A.212.212,0,0,0,23.23-7h-.59a.219.219,0,0,0-.25.24v4.72A1.849,1.849,0,0,0,24.43,0h5.86a.212.212,0,0,0,.24-.24V-.7a.219.219,0,0,0-.24-.25H24.68A1.083,1.083,0,0,1,23.47-2.16Zm7.96-4.6V-.24a.212.212,0,0,0,.24.24h6.05a2.12,2.12,0,0,0,2.35-2.35v-2.3A2.12,2.12,0,0,0,37.72-7H31.67A.212.212,0,0,0,31.43-6.76Zm7.56,4.3A1.36,1.36,0,0,1,37.47-.95H32.51v-5.1h4.96a1.36,1.36,0,0,1,1.52,1.51ZM42.35-.24V-2.62h4.91c.95,0,1.34.37,1.34,1.17V-.24a.212.212,0,0,0,.24.24h.59a.219.219,0,0,0,.25-.24V-1.38a1.557,1.557,0,0,0-1.11-1.71A1.551,1.551,0,0,0,49.68-4.8v-.35c0-1.36-.77-1.85-2.16-1.85H41.51a.212.212,0,0,0-.24.24V-.24a.212.212,0,0,0,.24.24h.59A.219.219,0,0,0,42.35-.24ZM48.6-4.61c0,.72-.35,1.04-1.22,1.04H42.35V-6.05h5.03c.87,0,1.22.31,1.22,1.04Z" transform="translate(-0.65 11)" fill="#16b9ed"/>
  <path id="Path_18924" data-name="Path 18924" d="M215.476,25.94c-3.567,0-5.376-1.075-5.376-3.449,0-3.325,2.25-4.911,6.868-4.911,3.57,0,5.376,1.075,5.376,3.425C222.347,24.343,220.084,25.94,215.476,25.94Zm1.048-6c-3.242,0-3.616.349-3.616,2.261,0,1.2.858,1.379,2.987,1.379,3.242,0,3.618-.363,3.618-2.274C219.517,20.112,218.656,19.94,216.525,19.94Z" transform="translate(-156.32 -14.28)" fill="#fdb82c"/>
  <path id="Path_18925" data-name="Path 18925" d="M260.467,24.256l-.352,1.935H257.33l.737-4.234h7.258a.892.892,0,0,0,.981-.882.628.628,0,0,0-.715-.618h-7.258l2.274-2.358h5.008c2.312,0,3.546,1.089,3.546,2.648,0,2.046-1.766,3.495-4.645,3.495Z" transform="translate(-190.854 -14.8)" fill="#fdb82c"/>
  <path id="Path_18926" data-name="Path 18926" d="M300.93,26.157l2.212-2.323h6.11c.411,0,.653-.169.653-.495,0-.242-.194-.352-.538-.352H304.8c-1.852,0-2.675-.806-2.675-1.97,0-1.755,1.075-2.957,4.032-2.957h7.159l-2.239,2.358h-5.6c-.436,0-.642.121-.642.46,0,.242.183.328.508.328h4.586c1.753,0,2.71.64,2.71,1.849,0,1.613-.7,3.1-3.836,3.1Z" transform="translate(-222.733 -14.76)" fill="#fdb82c"/>
</svg>
