<svg id="BuildrOPsdark" xmlns="http://www.w3.org/2000/svg" width="99.068" height="17.28" viewBox="0 0 99.068 17.28">
  <path id="Path_19197" data-name="Path 19197" d="M1.083-8.82q-.264,0-.264.3V-.3q0,.3.264.3H7.991c1.441,0,2.244-.58,2.244-2.192v-.189c0-1.159-.44-1.789-1.221-2.041a1.892,1.892,0,0,0,1.133-2.016v-.189c0-1.613-.8-2.192-2.244-2.192Zm6.688,5c.891,0,1.276.353,1.276,1.2v.227c0,.857-.341,1.2-1.21,1.2H2.007V-3.818ZM2.007-7.623H7.738c.869,0,1.221.34,1.221,1.2v.214c0,.844-.4,1.2-1.287,1.2H2.007ZM20.794-2.57V-8.518q0-.3-.264-.3h-.649c-.176,0-.275.1-.275.3v5.8c0,1-.462,1.525-1.331,1.525H13.842c-.869,0-1.331-.529-1.331-1.525v-5.8q0-.3-.264-.3H11.6c-.176,0-.275.1-.275.3V-2.57c0,1.638.8,2.57,2.244,2.57h4.994C19.991,0,20.794-.932,20.794-2.57Zm2.563-5.947c0-.2-.1-.3-.275-.3h-.649q-.264,0-.264.3V-.3q0,.3.264.3h.649c.176,0,.275-.1.275-.3Zm2.563,5.8v-5.8q0-.3-.264-.3h-.649c-.176,0-.275.1-.275.3V-2.57c0,1.638.8,2.57,2.244,2.57h6.446q.264,0,.264-.3v-.58c0-.2-.088-.315-.264-.315H27.251C26.382-1.2,25.92-1.726,25.92-2.722Zm8.756-5.8V-.3q0,.3.264.3h6.655c1.683,0,2.585-1.071,2.585-2.961v-2.9c0-1.89-.9-2.961-2.585-2.961H34.939Q34.675-8.82,34.675-8.518ZM42.991-3.1c0,1.235-.583,1.9-1.672,1.9H35.863V-7.623h5.456c1.089,0,1.672.668,1.672,1.9Zm3.7,2.8v-3h5.4c1.045,0,1.474.466,1.474,1.474V-.3q0,.3.264.3h.649c.176,0,.275-.1.275-.3V-1.739c0-1.21-.429-1.877-1.221-2.155.792-.277,1.221-.932,1.221-2.155v-.441c0-1.714-.847-2.331-2.376-2.331H45.762q-.264,0-.264.3V-.3q0,.3.264.3h.649C46.587,0,46.686-.1,46.686-.3Zm6.875-5.506c0,.907-.385,1.31-1.342,1.31H46.686V-7.623h5.533c.957,0,1.342.391,1.342,1.31Z" transform="translate(-0.819 12.82)" fill="#16b9ed"/>
  <rect id="Rectangle_2577" data-name="Rectangle 2577" width="42.45" height="17.28" rx="3" transform="translate(56.618)" fill="#fff"/>
  <path id="Path_18924" data-name="Path 18924" d="M215.476,26.74c-3.567,0-5.376-1.178-5.376-3.779,0-3.643,2.25-5.381,6.868-5.381,3.57,0,5.376,1.178,5.376,3.752C222.347,24.991,220.084,26.74,215.476,26.74Zm1.048-6.574c-3.242,0-3.616.383-3.616,2.477,0,1.314.858,1.511,2.987,1.511,3.242,0,3.618-.4,3.618-2.492C219.517,20.355,218.656,20.166,216.525,20.166Z" transform="translate(-150.929 -13.36)" fill="#fdb82c"/>
  <path id="Path_18925" data-name="Path 18925" d="M260.467,24.865l-.352,2.127H257.33l.737-4.652h7.258a.842.842,0,0,0,.685-.246,1.026,1.026,0,0,0,.3-.722.655.655,0,0,0-.715-.679h-7.258l2.274-2.591h5.008c2.312,0,3.546,1.2,3.546,2.91,0,2.248-1.766,3.84-4.645,3.84Z" transform="translate(-185.463 -13.88)" fill="#fdb82c"/>
  <path id="Path_18926" data-name="Path 18926" d="M300.93,26.957l2.212-2.552h6.11c.411,0,.653-.186.653-.543,0-.266-.194-.387-.538-.387H304.8c-1.852,0-2.675-.886-2.675-2.165,0-1.929,1.075-3.249,4.032-3.249h7.159l-2.239,2.59h-5.6c-.436,0-.642.133-.642.505,0,.266.183.36.508.36h4.586c1.753,0,2.71.7,2.71,2.032,0,1.772-.7,3.4-3.836,3.4Z" transform="translate(-217.344 -13.84)" fill="#fdb82c"/>
</svg>
