<svg id="BuildrOPswithtooltip" xmlns="http://www.w3.org/2000/svg" width="164.15" height="29" viewBox="0 0 164.15 29">
  <rect id="Rectangle_2575" data-name="Rectangle 2575" width="72.8" height="29" rx="3" transform="translate(91.35)" fill="#fff"/>
  <path id="Path_19199" data-name="Path 19199" d="M1.068-7Q.65-7,.65-6.487V7.44q0,.513.418.513H11.994c2.279,0,3.549-.983,3.549-3.717v-.32c0-1.965-.7-3.033-1.931-3.46C14.743-.015,15.4-1.062,15.4-2.963v-.32C15.4-6.017,14.134-7,11.855-7ZM11.646,1.48c1.409,0,2.018.6,2.018,2.029v.384c0,1.453-.539,2.029-1.914,2.029H2.529V1.48ZM2.529-4.971h9.065c1.375,0,1.931.577,1.931,2.029v.363c0,1.431-.626,2.029-2.036,2.029H2.529ZM32.247,3.6V-6.487q0-.513-.418-.513H30.8c-.278,0-.435.171-.435.513V3.339c0,1.688-.731,2.585-2.105,2.585H21.251c-1.375,0-2.105-.9-2.105-2.585V-6.487q0-.513-.418-.513H17.7c-.278,0-.435.171-.435.513V3.6c0,2.777,1.27,4.358,3.549,4.358h7.9C30.977,7.953,32.247,6.372,32.247,3.6ZM36.3-6.487c0-.342-.157-.513-.435-.513H34.839q-.418,0-.418.513V7.44q0,.513.418.513h1.027c.278,0,.435-.171.435-.513Zm4.054,9.826V-6.487q0-.513-.418-.513H38.911c-.278,0-.435.171-.435.513V3.6c0,2.777,1.27,4.358,3.549,4.358h10.2q.418,0,.418-.513V6.457c0-.342-.139-.534-.418-.534H42.46C41.086,5.923,40.355,5.026,40.355,3.339ZM54.2-6.487V7.44q0,.513.418.513H65.149c2.662,0,4.089-1.816,4.089-5.02V-1.98c0-3.2-1.427-5.02-4.089-5.02H54.622Q54.2-7,54.2-6.487ZM67.358,2.7c0,2.093-.922,3.225-2.645,3.225h-8.63V-4.971h8.63c1.723,0,2.645,1.132,2.645,3.225ZM73.2,7.44V2.356h8.543c1.653,0,2.331.79,2.331,2.5V7.44q0,.513.418.513h1.027c.278,0,.435-.171.435-.513V5c0-2.051-.679-3.183-1.931-3.653C85.28.882,85.958-.229,85.958-2.3v-.748C85.958-5.953,84.618-7,82.2-7H71.743q-.418,0-.418.513V7.44q0,.513.418.513H72.77C73.048,7.953,73.2,7.782,73.2,7.44ZM84.079-1.895c0,1.538-.609,2.222-2.123,2.222H73.2v-5.3h8.752c1.514,0,2.123.662,2.123,2.222Z" transform="translate(-0.65 13.96)" fill="#16b9ed"/>
  <g id="Group_9543" data-name="Group 9543" transform="translate(-0.223)">
    <path id="Path_18924" data-name="Path 18924" d="M219.454,34.9c-6.207,0-9.354-2.228-9.354-7.145,0-6.889,3.915-10.174,11.95-10.174,6.211,0,9.354,2.228,9.354,7.095C231.409,31.591,227.471,34.9,219.454,34.9Zm1.824-12.43c-5.641,0-6.291.724-6.291,4.683,0,2.484,1.492,2.857,5.2,2.857,5.641,0,6.3-.752,6.3-4.711C226.484,22.826,224.988,22.47,221.279,22.47Z" transform="translate(-114.527 -11.726)" fill="#fdb82c"/>
    <path id="Path_18925" data-name="Path 18925" d="M262.788,30.921l-.613,4.031H257.33l1.282-8.818H271.24a1.4,1.4,0,0,0,1.192-.467,2.037,2.037,0,0,0,.515-1.369A1.191,1.191,0,0,0,271.7,23.01H259.075l3.957-4.91h8.714c4.022,0,6.169,2.267,6.169,5.515,0,4.26-3.073,7.278-8.082,7.278Z" transform="translate(-139.35 -12.246)" fill="#fdb82c"/>
    <path id="Path_18926" data-name="Path 18926" d="M300.93,34.921l3.849-4.837h10.631c.716,0,1.137-.353,1.137-1.03,0-.5-.337-.733-.935-.733H307.66c-3.223,0-4.654-1.679-4.654-4.1,0-3.655,1.871-6.158,7.016-6.158h12.455l-3.9,4.909h-9.738c-.758,0-1.118.252-1.118.957,0,.5.318.683.884.683h7.979c3.05,0,4.715,1.332,4.715,3.851,0,3.359-1.221,6.449-6.674,6.449Z" transform="translate(-161.964 -12.206)" fill="#fdb82c"/>
  </g>
</svg>
