<svg id="Layer_1" data-name="Layer 1" xmlns="http://www.w3.org/2000/svg" xmlns:xlink="http://www.w3.org/1999/xlink" width="196.4539" height="35" viewBox="0 0 196.4539 35"><defs><style>.cls-1{fill:none;}.cls-2{fill:#fff;}.cls-3{opacity:0.94;}.cls-4{clip-path:url(#clip-path);}.cls-5{fill:#0fb9ec;}.cls-6{fill:#fab833;}</style><clipPath id="clip-path"><rect class="cls-1" x="116.8651" y="7.6006" width="77.332" height="23.5704"/></clipPath></defs><g id="Layer_1-2" data-name="Layer 1-2"><g id="OPS"><g id="B1"><rect class="cls-2" x="111.2263" y="0.6376" width="84.2508" height="33.8824" rx="6.0692"/><g class="cls-3"><rect class="cls-2" x="116.8596" y="7.6006" width="77.332" height="23.5704"/><g class="cls-4"><rect class="cls-2" x="116.8596" y="7.6006" width="77.332" height="23.5704"/></g></g></g></g><path class="cls-5" d="M15.4,11.4121c2.7466,0,4.2769.9644,4.2769,3.648v.3144a3.1251,3.1251,0,0,1-2.16,3.354c1.4888.42,2.3272,1.4678,2.3272,3.3965v.315c0,2.6835-1.53,3.6484-4.2769,3.6484H2.4006a.4446.4446,0,0,1-.5029-.5029V11.915a.4444.4444,0,0,1,.5029-.5029ZM4.1618,17.7437H14.9592c1.6982,0,2.4531-.587,2.4531-1.9917v-.3565c0-1.4258-.6709-1.9917-2.3271-1.9917H4.1618Zm0,1.9917v4.36H15.2736c1.6563,0,2.3062-.5654,2.3062-1.9912v-.3779c0-1.4043-.7339-1.9912-2.4321-1.9912Z"/><path class="cls-5" d="M35.7155,26.0879H26.197c-2.7461,0-4.2769-1.5518-4.2769-4.2774V11.915a.46.46,0,0,1,.5244-.5029h1.2369a.4444.4444,0,0,1,.5029.5029V21.56a2.2706,2.2706,0,0,0,2.5371,2.5361h8.4492A2.27,2.27,0,0,0,37.7072,21.56V11.915a.46.46,0,0,1,.5245-.5029h1.2368a.4444.4444,0,0,1,.5029.5029v9.8955C39.9714,24.5361,38.4411,26.0879,35.7155,26.0879Z"/><path class="cls-5" d="M44.8567,25.585a.46.46,0,0,1-.524.5029H43.0954a.4446.4446,0,0,1-.5029-.5029V11.915a.4444.4444,0,0,1,.5029-.5029h1.2373a.46.46,0,0,1,.524.5029Z"/><path class="cls-5" d="M52.2785,24.0957H64.04a.4606.4606,0,0,1,.5039.5244v.9649a.4452.4452,0,0,1-.5039.5029H51.7546c-2.7466,0-4.2773-1.5518-4.2773-4.2774V11.915a.46.46,0,0,1,.5244-.5029h1.2368a.4449.4449,0,0,1,.5034.5029V21.56a2.27,2.27,0,0,0,2.5366,2.5357Z"/><path class="cls-5" d="M66.9343,11.4121H79.6179c3.208,0,4.9267,1.7817,4.9267,4.9268v4.8222c0,3.1446-1.7187,4.9268-4.9267,4.9268H66.9343a.445.445,0,0,1-.5039-.5029V11.915a.445.445,0,0,1,.5039-.5029ZM82.281,16.5693a2.85,2.85,0,0,0-3.1866-3.1655H68.695V24.0957H79.0944a2.85,2.85,0,0,0,3.1866-3.165Z"/><path class="cls-5" d="M88.8005,26.0879H87.5642a.445.445,0,0,1-.5039-.5029V11.915a.445.445,0,0,1,.5039-.5029h12.6c2.915,0,4.5293,1.0274,4.5293,3.8784v.7339c0,2.0332-.8184,3.124-2.3272,3.585,1.5088.4609,2.3272,1.5722,2.3272,3.5849V25.585a.46.46,0,0,1-.5244.5029h-1.2373a.4448.4448,0,0,1-.503-.5029V23.0479c0-1.6768-.8174-2.4532-2.8095-2.4532H89.3249v4.99a.46.46,0,0,1-.5244.5032ZM102.4284,15.584c0-1.53-.7334-2.18-2.5576-2.18H89.3249v5.2H99.8708c1.8242,0,2.5576-.6714,2.5576-2.1806Z"/><g id="OPS_Inside" data-name="OPS Inside"><path class="cls-6" d="M127.0116,26.0728c-7.3216,0-11.0348-2.2069-11.0348-7.0788,0-6.825,4.6181-10.08,14.1025-10.08,7.3216,0,11.0348,2.207,11.0348,7.0292C141.1141,22.8176,136.474,26.0728,127.0116,26.0728Zm2.1628-12.3148c-6.654,0-7.4264.7173-7.4264,4.64,0,2.4608,1.7656,2.8305,6.1354,2.8305,6.6539,0,7.4209-.7449,7.4209-4.6678C135.3043,14.1277,133.5442,13.758,129.1744,13.758Z"/><path class="cls-6" d="M148.4633,21.8244l-.7173,3.9726h-5.71l1.5118-8.69h14.9246a1.8263,1.8263,0,0,0,1.9992-1.6351q.0087-.087.0091-.1747a1.2847,1.2847,0,0,0-1.4621-1.269h-14.897L148.7888,9.19h10.279c4.7394,0,7.2719,2.2345,7.2719,5.4346,0,4.1988-3.625,7.2-9.5341,7.2Z"/><path class="cls-6" d="M166.0914,25.797l4.5464-4.7671h12.519c.8441,0,1.3407-.3476,1.3407-1.0152,0-.4965-.3973-.7228-1.1035-.7228h-9.38c-3.796,0-5.4843-1.6552-5.4843-4.0442,0-3.6029,2.207-6.0692,8.2761-6.0692H191.477l-4.596,4.8388H175.4324c-.8938,0-1.3132.2483-1.3132.9435,0,.4966.37.6731,1.0428.6731h9.4072c3.5974,0,5.5616,1.3132,5.5616,3.796,0,3.31-1.44,6.356-7.8679,6.356Z"/></g></g></svg>