<svg xmlns="http://www.w3.org/2000/svg" width="504.643" height="82.794" viewBox="0 0 504.643 82.794">
  <g id="BuildrOps-outside-rechtangle-ondark" transform="translate(0.012)">
    <g id="Lonly_OPS" data-name="Lonly OPS">
      <g id="OPS">
        <g id="B1">
          <rect id="Rectangle_2816" data-name="Rectangle 2816" width="205.874" height="82.794" rx="14.831" transform="translate(298.757)" fill="#fff"/>
        </g>
      </g>
      <g id="OPS_Inside" data-name="OPS Inside">
        <path id="Path_19266" data-name="Path 19266" d="M337.5,62.376c-17.915,0-27.026-5.465-27.026-17.306,0-16.7,11.3-24.652,34.5-24.652,17.915,0,27.024,5.4,27.024,17.184C371.992,54.361,360.636,62.376,337.5,62.376Zm5.284-30.117c-16.276,0-18.158,1.761-18.158,11.354,0,6.012,4.311,6.922,15,6.922,16.276,0,18.158-1.821,18.158-11.415,0-5.951-4.311-6.863-15-6.863Z" fill="#ffb92c"/>
        <path id="Path_19267" data-name="Path 19267" d="M389.971,51.993l-1.761,9.715H374.242l3.705-21.252h36.5a4.474,4.474,0,0,0,4.9-4.006q.021-.213.022-.427a3.149,3.149,0,0,0-3.583-3.1H379.343L390.76,21.086H415.9c11.6,0,17.8,5.465,17.8,13.3,0,10.262-8.866,17.609-23.321,17.609Z" fill="#ffb92c"/>
        <path id="Path_19268" data-name="Path 19268" d="M433.092,61.708,444.206,50.05h30.67c2.064,0,3.279-.85,3.279-2.489,0-1.215-.971-1.761-2.673-1.761H452.526c-9.292,0-13.422-4.068-13.422-9.9,0-8.8,5.405-14.816,20.284-14.816h35.892l-11.236,11.84H455.927c-2.187,0-3.219.607-3.219,2.307,0,1.214.911,1.639,2.55,1.639h23.019c8.805,0,13.6,3.218,13.6,9.29,0,8.076-3.523,15.544-19.252,15.544Z" fill="#ffb92c"/>
      </g>
    </g>
    <path id="Path_19269" data-name="Path 19269" d="M37.409,21.086c7.61,0,11.851,2.67,11.851,10.1v.87c0,5.165-2.207,8.008-5.984,9.285,4.125,1.161,6.448,4.062,6.448,9.4v.87c0,7.428-4.24,10.1-11.849,10.1H1.394A1.232,1.232,0,0,1,0,60.315V22.478a1.232,1.232,0,0,1,1.394-1.393ZM6.273,38.612H36.189c4.705,0,6.8-1.625,6.8-5.513v-.986c0-3.947-1.859-5.514-6.448-5.514H6.273Zm0,5.513V56.2H37.061c4.589,0,6.389-1.567,6.389-5.513V49.637c0-3.888-2.033-5.513-6.738-5.513Z" fill="#07b9ec"/>
    <path id="Path_19270" data-name="Path 19270" d="M93.7,61.708H67.324c-7.61,0-11.849-4.294-11.849-11.839V22.478a1.273,1.273,0,0,1,1.452-1.393h3.428a1.232,1.232,0,0,1,1.394,1.393V49.173c0,4.584,2.439,7.022,7.029,7.022H92.185c4.59,0,7.029-2.438,7.029-7.022V22.478a1.274,1.274,0,0,1,1.453-1.393h3.427a1.232,1.232,0,0,1,1.394,1.393V49.869C105.488,57.414,101.248,61.708,93.7,61.708Z" fill="#07b9ec"/>
    <path id="Path_19271" data-name="Path 19271" d="M119.021,60.315a1.273,1.273,0,0,1-1.452,1.393h-3.428a1.232,1.232,0,0,1-1.394-1.393V22.478a1.232,1.232,0,0,1,1.394-1.393h3.428a1.274,1.274,0,0,1,1.452,1.393Z" fill="#07b9ec"/>
    <path id="Path_19272" data-name="Path 19272" d="M139.584,56.2h32.587a1.273,1.273,0,0,1,1.394,1.45v2.67a1.231,1.231,0,0,1-1.394,1.393h-34.04c-7.61,0-11.85-4.294-11.85-11.839V22.478a1.274,1.274,0,0,1,1.452-1.393h3.428a1.232,1.232,0,0,1,1.394,1.393V49.173C132.555,53.757,134.995,56.2,139.584,56.2Z" fill="#07b9ec"/>
    <path id="Path_19273" data-name="Path 19273" d="M180.185,21.086h35.144c8.887,0,13.651,4.933,13.651,13.638V48.07c0,8.705-4.764,13.638-13.651,13.638H180.185a1.232,1.232,0,0,1-1.394-1.393V22.478a1.232,1.232,0,0,1,1.394-1.393Zm42.522,14.276c0-5.687-3.079-8.763-8.829-8.763H185.065V56.2h28.813c5.75,0,8.829-3.076,8.829-8.763Z" fill="#07b9ec"/>
    <path id="Path_19274" data-name="Path 19274" d="M240.771,61.708h-3.428a1.232,1.232,0,0,1-1.394-1.393V22.478a1.232,1.232,0,0,1,1.394-1.393h34.912c8.074,0,12.547,2.844,12.547,10.736v2.031c0,5.629-2.266,8.647-6.448,9.924,4.182,1.277,6.448,4.353,6.448,9.924v6.616a1.274,1.274,0,0,1-1.452,1.393h-3.428a1.231,1.231,0,0,1-1.394-1.393V53.293c0-4.643-2.266-6.79-7.784-6.79H242.223V60.315a1.273,1.273,0,0,1-1.452,1.393Zm37.758-29.074c0-4.236-2.033-6.035-7.087-6.035H242.223V40.991h29.219c5.054,0,7.087-1.856,7.087-6.035Z" fill="#07b9ec"/>
  </g>
</svg>
