<svg id="BuildrOPsColumn" xmlns="http://www.w3.org/2000/svg" width="107.068" height="16" viewBox="0 0 107.068 16">
  <path id="Path_19197" data-name="Path 19197" d="M1.121-8.82a.267.267,0,0,0-.3.3V-.3a.267.267,0,0,0,.3.3H9.034c1.651,0,2.57-.58,2.57-2.192v-.189a1.86,1.86,0,0,0-1.4-2.041,1.878,1.878,0,0,0,1.3-2.016v-.189c0-1.613-.92-2.192-2.57-2.192Zm7.661,5c1.021,0,1.462.353,1.462,1.2v.227c0,.857-.391,1.2-1.386,1.2H2.18V-3.818ZM2.18-7.623H8.744c1,0,1.4.34,1.4,1.2v.214c0,.844-.454,1.2-1.474,1.2H2.18ZM23.7-2.57V-8.518a.267.267,0,0,0-.3-.3h-.743a.276.276,0,0,0-.315.3v5.8A1.365,1.365,0,0,1,20.815-1.2H15.737a1.365,1.365,0,0,1-1.525-1.525v-5.8a.267.267,0,0,0-.3-.3h-.743a.276.276,0,0,0-.315.3V-2.57A2.33,2.33,0,0,0,15.422,0h5.72A2.326,2.326,0,0,0,23.7-2.57Zm2.936-5.947a.276.276,0,0,0-.315-.3h-.743a.267.267,0,0,0-.3.3V-.3a.267.267,0,0,0,.3.3h.743a.276.276,0,0,0,.315-.3Zm2.936,5.8v-5.8a.267.267,0,0,0-.3-.3h-.743a.276.276,0,0,0-.315.3V-2.57A2.33,2.33,0,0,0,30.782,0h7.384a.267.267,0,0,0,.3-.3v-.58a.276.276,0,0,0-.3-.315H31.1A1.365,1.365,0,0,1,29.572-2.722Zm10.03-5.8V-.3a.267.267,0,0,0,.3.3h7.623a2.671,2.671,0,0,0,2.961-2.961v-2.9A2.671,2.671,0,0,0,47.527-8.82H39.9A.267.267,0,0,0,39.6-8.518ZM49.127-3.1a1.713,1.713,0,0,1-1.915,1.9h-6.25V-7.623h6.25a1.713,1.713,0,0,1,1.915,1.9ZM53.361-.3v-3h6.187c1.2,0,1.688.466,1.688,1.474V-.3a.267.267,0,0,0,.3.3h.743A.276.276,0,0,0,62.6-.3V-1.739a1.962,1.962,0,0,0-1.4-2.155,1.954,1.954,0,0,0,1.4-2.155v-.441c0-1.714-.97-2.331-2.722-2.331H52.3a.267.267,0,0,0-.3.3V-.3a.267.267,0,0,0,.3.3h.743A.276.276,0,0,0,53.361-.3Zm7.875-5.506c0,.907-.441,1.31-1.537,1.31H53.361V-7.623H59.7c1.1,0,1.537.391,1.537,1.31Z" transform="translate(-0.819 12.82)" fill="#16b9ed"/>
  <rect id="Rectangle_2577" data-name="Rectangle 2577" width="42.45" height="16" rx="3" transform="translate(64.618)" fill="#fff"/>
  <path id="Path_18924" data-name="Path 18924" d="M215.476,26.74c-3.567,0-5.376-1.178-5.376-3.779,0-3.643,2.25-5.381,6.868-5.381,3.57,0,5.376,1.178,5.376,3.752C222.347,24.991,220.084,26.74,215.476,26.74Zm1.048-6.574c-3.242,0-3.616.383-3.616,2.477,0,1.314.858,1.511,2.987,1.511,3.242,0,3.618-.4,3.618-2.492C219.517,20.355,218.656,20.166,216.525,20.166Z" transform="translate(-142.929 -13.58)" fill="#fdb82c"/>
  <path id="Path_18925" data-name="Path 18925" d="M260.467,24.865l-.352,2.127H257.33l.737-4.652h7.258a.842.842,0,0,0,.685-.246,1.026,1.026,0,0,0,.3-.722.655.655,0,0,0-.715-.679h-7.258l2.274-2.591h5.008c2.312,0,3.546,1.2,3.546,2.91,0,2.248-1.766,3.84-4.645,3.84Z" transform="translate(-177.463 -14.1)" fill="#fdb82c"/>
  <path id="Path_18926" data-name="Path 18926" d="M300.93,26.957l2.212-2.552h6.11c.411,0,.653-.186.653-.543,0-.266-.194-.387-.538-.387H304.8c-1.852,0-2.675-.886-2.675-2.165,0-1.929,1.075-3.249,4.032-3.249h7.159l-2.239,2.59h-5.6c-.436,0-.642.133-.642.505,0,.266.183.36.508.36h4.586c1.753,0,2.71.7,2.71,2.032,0,1.772-.7,3.4-3.836,3.4Z" transform="translate(-209.344 -14.06)" fill="#fdb82c"/>
</svg>
