<?xml version="1.0" standalone="no"?>
<!DOCTYPE svg PUBLIC "-//W3C//DTD SVG 20010904//EN"
 "http://www.w3.org/TR/2001/REC-SVG-20010904/DTD/svg10.dtd">
<svg version="1.0" xmlns="http://www.w3.org/2000/svg"
 width="1474.000000pt" height="258.000000pt" viewBox="0 0 1474.000000 258.000000"
 preserveAspectRatio="xMidYMid meet">

<g transform="translate(0.000000,258.000000) scale(0.100000,-0.100000)"
fill="#000000" stroke="none">
<path d="M8721 2569 c-169 -33 -324 -187 -360 -357 -8 -36 -11 -324 -11 -922
0 -598 3 -886 11 -922 37 -175 190 -324 368 -358 73 -14 5547 -14 5622 0 176
33 332 184 369 357 7 31 10 358 8 953 l-3 905 -37 78 c-67 141 -193 240 -337
267 -67 13 -5566 12 -5630 -1z m1324 -640 c202 -25 358 -91 454 -195 96 -103
130 -230 111 -417 -40 -393 -301 -604 -810 -657 -216 -22 -517 -7 -675 35 -81
21 -200 78 -251 121 -62 50 -119 144 -140 226 -20 85 -15 279 11 372 84 302
327 464 780 519 71 9 438 6 520 -4z m2118 -25 c254 -58 385 -233 350 -465 -26
-163 -134 -302 -295 -379 -165 -78 -256 -90 -704 -90 l-342 0 -6 -32 c-3 -18
-15 -86 -27 -150 l-21 -118 -214 0 c-166 0 -214 3 -214 13 0 13 96 575 105
614 l5 22 589 3 c578 3 590 3 617 24 74 55 91 131 41 182 l-27 27 -591 3 -590
2 173 180 173 179 453 1 c383 0 464 -3 525 -16z m2222 -15 c-14 -18 -90 -99
-167 -180 l-142 -149 -453 0 c-452 0 -484 -2 -505 -34 -14 -21 -8 -65 10 -75
10 -5 209 -11 462 -14 483 -4 494 -6 600 -63 104 -57 142 -151 122 -305 -25
-202 -133 -320 -343 -375 -56 -16 -137 -18 -674 -21 -335 -2 -650 -3 -700 -1
l-90 3 169 178 170 177 496 0 c488 0 498 0 524 21 33 26 35 71 4 93 -19 14
-78 16 -433 16 -431 0 -491 5 -588 48 -50 22 -109 77 -134 125 -11 21 -18 64
-21 124 -11 244 123 398 393 448 52 10 229 13 698 14 l629 1 -27 -31z"/>
<path d="M9444 1570 c-114 -13 -180 -36 -223 -79 -48 -48 -64 -106 -65 -230
-1 -109 14 -149 73 -188 59 -40 98 -46 354 -50 349 -7 467 14 537 93 39 45 53
99 54 219 1 145 -27 187 -150 221 -68 19 -458 28 -580 14z"/>
</g>
</svg>
