<?xml version="1.0" standalone="no"?>
<!DOCTYPE svg PUBLIC "-//W3C//DTD SVG 20010904//EN"
 "http://www.w3.org/TR/2001/REC-SVG-20010904/DTD/svg10.dtd">
<svg version="1.0" xmlns="http://www.w3.org/2000/svg"
 width="93.000000pt" height="18.000000pt" viewBox="0 0 93.000000 18.000000"
 preserveAspectRatio="xMidYMid meet">

<g transform="translate(0.000000,18.000000) scale(0.100000,-0.100000)"
fill="#000000" stroke="none">
<path d="M530 151 c-5 -11 -10 -40 -10 -65 0 -73 7 -76 190 -76 87 0 165 3
174 6 23 9 23 139 0 148 -9 3 -89 6 -179 6 -152 0 -165 -1 -175 -19z m111 -31
c26 -14 24 -36 -6 -56 -35 -23 -85 -11 -85 21 0 38 49 57 91 35z m119 0 c22
-14 0 -44 -36 -48 -16 -2 -35 -8 -41 -14 -10 -8 -13 -5 -13 11 0 17 6 21 35
21 19 0 35 5 35 10 0 6 -14 10 -31 10 -17 0 -28 4 -24 10 8 13 55 13 75 0z
m115 1 c-6 -5 -23 -11 -40 -14 l-30 -4 32 -2 c66 -3 43 -51 -24 -51 -46 0 -42
20 5 21 l37 1 -33 8 c-42 10 -48 16 -32 35 7 9 29 15 53 15 25 0 37 -4 32 -9z"/>
<path d="M574 99 c-3 -6 -2 -15 4 -21 15 -15 46 -5 50 15 3 12 -3 17 -22 17
-14 0 -28 -5 -32 -11z"/>
</g>
</svg>
