<svg xmlns="http://www.w3.org/2000/svg" width="15.5" height="15.5" viewBox="0 0 15.5 15.5">
  <g id="clock_7_" data-name="clock (7)" transform="translate(0 0)">
    <path id="Path_18712" data-name="Path 18712" d="M13.87,4.078a.646.646,0,0,0-.3.862,6.393,6.393,0,0,1,.639,2.809A6.458,6.458,0,1,1,7.751,1.292,6.381,6.381,0,0,1,11.76,2.685a.646.646,0,1,0,.8-1.011A7.751,7.751,0,1,0,15.5,7.75a7.671,7.671,0,0,0-.769-3.372.645.645,0,0,0-.862-.3Zm0,0" fill="#001f38"/>
    <path id="Path_18713" data-name="Path 18713" d="M176.646,64a.646.646,0,0,0-.646.646v4.521a.646.646,0,0,0,.646.646h3.229a.646.646,0,1,0,0-1.292h-2.583V64.646A.646.646,0,0,0,176.646,64Zm0,0" transform="translate(-168.895 -61.417)" fill="#001f38"/>
  </g>
</svg>
