<svg xmlns="http://www.w3.org/2000/svg" width="168" height="28" viewBox="0 0 168 28"><defs><style>.a{fill:#fff;}.a,.b{stroke:#fff;}.b,.e{fill:none;}.c{opacity:0.2;}.d{stroke:none;}</style></defs><g transform="translate(-15 -4)"><g transform="translate(155 4)"><g transform="translate(8.659 4.809)"><path class="a" d="M8.447,17.788.259,9.695a.863.863,0,0,1,0-1.233L8.447.37a1.289,1.289,0,0,1,1.807,0,1.254,1.254,0,0,1,0,1.786l-7,6.924,7,6.922a1.255,1.255,0,0,1,0,1.786,1.289,1.289,0,0,1-1.807,0"/></g><g class="b"><rect class="d" width="28" height="28" rx="5"/><rect class="e" x="0.5" y="0.5" width="27" height="27" rx="4.5"/></g></g><g class="c" transform="translate(15 4)"><g transform="translate(8.659 4.809)"><path class="a" d="M8.447,17.788.259,9.695a.863.863,0,0,1,0-1.233L8.447.37a1.289,1.289,0,0,1,1.807,0,1.254,1.254,0,0,1,0,1.786l-7,6.924,7,6.922a1.255,1.255,0,0,1,0,1.786,1.289,1.289,0,0,1-1.807,0"/></g><g class="b"><rect class="d" width="28" height="28" rx="5"/><rect class="e" x="0.5" y="0.5" width="27" height="27" rx="4.5"/></g></g></g></svg>