<svg xmlns="http://www.w3.org/2000/svg" xmlns:xlink="http://www.w3.org/1999/xlink" width="24" height="59" viewBox="0 0 24 59"><defs><style>.a{fill:#edeeef;}.b{fill:#77797f;}.c{filter:url(#a);}</style><filter id="a" x="0" y="0" width="24" height="59" filterUnits="userSpaceOnUse"><feOffset dy="1" input="SourceAlpha"/><feGaussianBlur stdDeviation="1.5" result="b"/><feFlood flood-color="#666" flood-opacity="0.22"/><feComposite operator="in" in2="b"/><feComposite in="SourceGraphic"/></filter></defs><g transform="translate(-1340.5 -378.5)"><g transform="translate(1334 272)"><g class="c" transform="matrix(1, 0, 0, 1, 6.5, 106.5)"><path class="a" d="M10,0h5V50H10A10,10,0,0,1,0,40V10A10,10,0,0,1,10,0Z" transform="translate(4.5 3.5)"/></g></g><path class="b" d="M1.173.2l4.4,4.351a.464.464,0,0,1,0,.663l-4.4,4.351a.693.693,0,0,1-.972,0,.674.674,0,0,1,0-.96L3.967,4.881.2,1.159A.675.675,0,0,1,.2.2a.693.693,0,0,1,.972,0" transform="translate(1350 402)"/></g></svg>