<svg xmlns="http://www.w3.org/2000/svg" width="30" height="30" viewBox="0 0 30 30"><defs><style>.a{fill:#07b9ec;}.b{fill:#fff;}</style></defs><g transform="translate(0 -3)"><path class="a" d="M30,15A15,15,0,1,1,15,0,15,15,0,0,1,30,15Zm0,0" transform="translate(0 3)"/><g transform="translate(4.992 9.305)"><path class="b" d="M104.787,110.027h-13.6a3.214,3.214,0,0,0-3.211,3.211v8.922a3.215,3.215,0,0,0,3.211,3.211h5.562a.894.894,0,0,0,0-1.787H91.192a1.425,1.425,0,0,1-1.424-1.424v-8.486l6.526,4.058a3.191,3.191,0,0,0,3.391,0l6.526-4.058v2.5a.894.894,0,1,0,1.787,0v-2.935a3.215,3.215,0,0,0-3.211-3.211Zm-6.046,6.187a1.416,1.416,0,0,1-1.5,0l-6.763-4.205a1.413,1.413,0,0,1,.717-.195h13.6a1.413,1.413,0,0,1,.717.195Zm0,0" transform="translate(-87.981 -110.027)"/><path class="b" d="M268.47,243.025l-4.241,4.232a.9.9,0,0,0-.224.373l-.924,3.041a.894.894,0,0,0,1.094,1.121l3.118-.864a.892.892,0,0,0,.393-.229l4.232-4.224a2.438,2.438,0,0,0-3.448-3.449Zm1.724,1.074a.651.651,0,0,1,.461,1.111l-.064.064-.921-.921.063-.063A.648.648,0,0,1,270.194,244.1Zm-3.6,5.169-1.326.367.386-1.272,2.754-2.748.921.921Zm0,0" transform="translate(-252.615 -234.433)"/></g></g></svg>