<?xml version="1.0" encoding="utf-8"?>
<svg width="15" height="18" viewBox="0 0 15 18" xmlns="http://www.w3.org/2000/svg">
  <defs>
    <clipPath id="clip-path">
      <rect id="Rectangle_112" data-name="Rectangle 112" width="15" height="18" transform="translate(-0.178)" fill="#fff" stroke="#fff" stroke-width="1"/>
    </clipPath>
  </defs>
  <g id="company" transform="translate(0.178)" opacity="0.7" clip-path="url(#clip-path)">
    <g id="office-building" transform="translate(-25.178 1)">
      <path id="Path_18271" data-name="Path 18271" d="M39.822,3.686H33.986V.307A.307.307,0,0,0,33.679,0H26.307A.307.307,0,0,0,26,.307V15.419a.307.307,0,0,0,.307.307H39.822a.307.307,0,0,0,.307-.307V3.993A.307.307,0,0,0,39.822,3.686ZM33.986,4.3h5.529v7.74H33.986ZM29.072,15.112V12.655h1.843v2.457Zm2.15-3.072H28.764a.307.307,0,0,0-.307.307v2.764H26.614V.614h6.757v14.5H31.529V12.347A.307.307,0,0,0,31.222,12.04Zm2.764,3.072V12.655h5.529v2.457Z" style="fill: rgb(97, 186, 215);"/>
      <path id="Path_18272" data-name="Path 18272" d="M136.306,41.23h.614a.307.307,0,0,0,.307-.307v-.614A.307.307,0,0,0,136.92,40h-.614a.307.307,0,0,0-.307.307v.614A.307.307,0,0,0,136.306,41.23Z" transform="translate(-106.62 -38.772)" style="fill: rgb(97, 186, 215);"/>
      <path id="Path_18273" data-name="Path 18273" d="M136.306,111.23h.614a.307.307,0,0,0,.307-.307v-.614a.307.307,0,0,0-.307-.307h-.614a.307.307,0,0,0-.307.307v.614A.307.307,0,0,0,136.306,111.23Z" transform="translate(-106.62 -106.622)" style="fill: rgb(97, 186, 215);"/>
      <path id="Path_18274" data-name="Path 18274" d="M136.306,181.23h.614a.307.307,0,0,0,.307-.307v-.614a.307.307,0,0,0-.307-.307h-.614a.307.307,0,0,0-.307.307v.614A.307.307,0,0,0,136.306,181.23Z" transform="translate(-106.62 -174.472)" style="fill: rgb(97, 186, 215);"/>
      <path id="Path_18275" data-name="Path 18275" d="M136.306,251.229h.614a.307.307,0,0,0,.307-.307v-.614a.307.307,0,0,0-.307-.307h-.614a.307.307,0,0,0-.307.307v.614A.307.307,0,0,0,136.306,251.229Z" transform="translate(-106.62 -242.321)" style="fill: rgb(97, 186, 215);"/>
      <path id="Path_18276" data-name="Path 18276" d="M136.306,321.229h.614a.307.307,0,0,0,.307-.307v-.614a.307.307,0,0,0-.307-.307h-.614a.307.307,0,0,0-.307.307v.614A.307.307,0,0,0,136.306,321.229Z" transform="translate(-106.62 -310.171)" style="fill: rgb(97, 186, 215);"/>
      <path id="Path_18277" data-name="Path 18277" d="M66.308,41.23h.614a.307.307,0,0,0,.307-.307v-.614A.307.307,0,0,0,66.922,40h-.614a.307.307,0,0,0-.307.307v.614A.307.307,0,0,0,66.308,41.23Z" transform="translate(-38.772 -38.772)" style="fill: rgb(97, 186, 215);"/>
      <path id="Path_18278" data-name="Path 18278" d="M66.308,111.23h.614a.307.307,0,0,0,.307-.307v-.614a.307.307,0,0,0-.307-.307h-.614a.307.307,0,0,0-.307.307v.614A.307.307,0,0,0,66.308,111.23Z" transform="translate(-38.772 -106.622)" style="fill: rgb(97, 186, 215);"/>
      <path id="Path_18279" data-name="Path 18279" d="M66.308,181.23h.614a.307.307,0,0,0,.307-.307v-.614a.307.307,0,0,0-.307-.307h-.614a.307.307,0,0,0-.307.307v.614A.307.307,0,0,0,66.308,181.23Z" transform="translate(-38.772 -174.472)" style="fill: rgb(97, 186, 215);"/>
      <path id="Path_18280" data-name="Path 18280" d="M66.308,251.229h.614a.307.307,0,0,0,.307-.307v-.614a.307.307,0,0,0-.307-.307h-.614a.307.307,0,0,0-.307.307v.614A.307.307,0,0,0,66.308,251.229Z" transform="translate(-38.772 -242.321)" style="fill: rgb(97, 186, 215);"/>
      <path id="Path_18281" data-name="Path 18281" d="M66.308,321.229h.614a.307.307,0,0,0,.307-.307v-.614a.307.307,0,0,0-.307-.307h-.614a.307.307,0,0,0-.307.307v.614A.307.307,0,0,0,66.308,321.229Z" transform="translate(-38.772 -310.171)" style="fill: rgb(97, 186, 215);"/>
      <path id="Path_18282" data-name="Path 18282" d="M206.922,40h-.614a.307.307,0,0,0-.307.307v.614a.307.307,0,0,0,.307.307h.614a.307.307,0,0,0,.307-.307v-.614A.307.307,0,0,0,206.922,40Z" transform="translate(-174.472 -38.772)" style="fill: rgb(97, 186, 215);"/>
      <path id="Path_18283" data-name="Path 18283" d="M206.922,110h-.614a.307.307,0,0,0-.307.307v.614a.307.307,0,0,0,.307.307h.614a.307.307,0,0,0,.307-.307v-.614A.307.307,0,0,0,206.922,110Z" transform="translate(-174.472 -106.621)" style="fill: rgb(97, 186, 215);"/>
      <path id="Path_18284" data-name="Path 18284" d="M206.922,180h-.614a.307.307,0,0,0-.307.307v.614a.307.307,0,0,0,.307.307h.614a.307.307,0,0,0,.307-.307v-.614A.307.307,0,0,0,206.922,180Z" transform="translate(-174.472 -174.471)" style="fill: rgb(97, 186, 215);"/>
      <path id="Path_18285" data-name="Path 18285" d="M206.922,250h-.614a.307.307,0,0,0-.307.307v.614a.307.307,0,0,0,.307.307h.614a.307.307,0,0,0,.307-.307v-.614A.307.307,0,0,0,206.922,250Z" transform="translate(-174.472 -242.321)" style="fill: rgb(97, 186, 215);"/>
      <path id="Path_18286" data-name="Path 18286" d="M206.922,320h-.614a.307.307,0,0,0-.307.307v.614a.307.307,0,0,0,.307.307h.614a.307.307,0,0,0,.307-.307v-.614A.307.307,0,0,0,206.922,320Z" transform="translate(-174.472 -310.171)" style="fill: rgb(97, 186, 215);"/>
      <path id="Path_18287" data-name="Path 18287" d="M391.921,180h-.614a.307.307,0,0,0-.307.307v.614a.307.307,0,0,0,.307.307h.614a.307.307,0,0,0,.307-.307v-.614A.307.307,0,0,0,391.921,180Z" transform="translate(-353.789 -174.471)" style="fill: rgb(97, 186, 215);"/>
      <path id="Path_18288" data-name="Path 18288" d="M391.921,250h-.614a.307.307,0,0,0-.307.307v.614a.307.307,0,0,0,.307.307h.614a.307.307,0,0,0,.307-.307v-.614A.307.307,0,0,0,391.921,250Z" transform="translate(-353.789 -242.321)" style="fill: rgb(97, 186, 215);"/>
      <path id="Path_18289" data-name="Path 18289" d="M391.921,320h-.614a.307.307,0,0,0-.307.307v.614a.307.307,0,0,0,.307.307h.614a.307.307,0,0,0,.307-.307v-.614A.307.307,0,0,0,391.921,320Z" transform="translate(-353.789 -310.171)" style="fill: rgb(97, 186, 215);"/>
      <path id="Path_18290" data-name="Path 18290" d="M321.923,180h-.614a.307.307,0,0,0-.307.307v.614a.307.307,0,0,0,.307.307h.614a.307.307,0,0,0,.307-.307v-.614A.307.307,0,0,0,321.923,180Z" transform="translate(-285.941 -174.471)" style="fill: rgb(97, 186, 215);"/>
      <path id="Path_18291" data-name="Path 18291" d="M321.923,250h-.614a.307.307,0,0,0-.307.307v.614a.307.307,0,0,0,.307.307h.614a.307.307,0,0,0,.307-.307v-.614A.307.307,0,0,0,321.923,250Z" transform="translate(-285.941 -242.321)" style="fill: rgb(97, 186, 215);"/>
      <path id="Path_18292" data-name="Path 18292" d="M321.923,320h-.614a.307.307,0,0,0-.307.307v.614a.307.307,0,0,0,.307.307h.614a.307.307,0,0,0,.307-.307v-.614A.307.307,0,0,0,321.923,320Z" transform="translate(-285.941 -310.171)" style="fill: rgb(97, 186, 215);"/>
    </g>
  </g>
</svg>