<svg id="compose_icon" xmlns="http://www.w3.org/2000/svg" width="16.131" height="14.014" viewBox="0 0 16.131 14.014">
  <path id="Path_17878" data-name="Path 17878" d="M101.524,110.027H90.568a2.59,2.59,0,0,0-2.587,2.587v7.19a2.59,2.59,0,0,0,2.587,2.587H95.05a.72.72,0,0,0,0-1.44H90.568a1.149,1.149,0,0,1-1.147-1.147v-6.839l5.259,3.27a2.572,2.572,0,0,0,2.733,0l5.259-3.27v2.014a.72.72,0,1,0,1.44,0v-2.365a2.59,2.59,0,0,0-2.587-2.587Zm-4.872,4.985a1.141,1.141,0,0,1-1.212,0l-5.45-3.389a1.139,1.139,0,0,1,.578-.157h10.956a1.139,1.139,0,0,1,.578.157Zm0,0" transform="translate(-87.981 -110.027)" fill="#001f38"/>
  <path id="Path_17879" data-name="Path 17879" d="M267.417,242.887,264,246.3a.721.721,0,0,0-.18.3l-.744,2.45a.72.72,0,0,0,.881.9l2.512-.7a.719.719,0,0,0,.316-.184l3.41-3.4a1.965,1.965,0,0,0-2.778-2.779Zm1.389.865a.525.525,0,0,1,.372.9l-.052.052-.742-.742.051-.051A.522.522,0,0,1,268.805,243.752Zm-2.9,4.165-1.068.3.311-1.025,2.22-2.215.743.743Zm0,0" transform="translate(-254.64 -235.963)" fill="#001f38"/>
</svg>
