<?xml version="1.0" encoding="utf-8"?>
<svg width="16" height="16" viewBox="0 0 16 16" xmlns="http://www.w3.org/2000/svg">
  <defs>
    <clipPath id="clip-path">
      <rect id="Rectangle_156" data-name="Rectangle 156" width="16" height="16" fill="#fff"/>
    </clipPath>
  </defs>
  <g id="cost_control" data-name="cost control" opacity="0.7" clip-path="url(#clip-path)">
    <g id="money-bag_1_" data-name="money-bag (1)" transform="translate(1.778 1.778)">
      <path id="Path_17608" data-name="Path 17608" d="M151.986,245.932a.382.382,0,0,1-.382-.382.382.382,0,0,0-.764,0,1.148,1.148,0,0,0,.768,1.081v.334a.382.382,0,0,0,.764,0v-.337a1.146,1.146,0,0,0-.386-2.225.382.382,0,1,1,.382-.382.382.382,0,0,0,.764,0,1.148,1.148,0,0,0-.76-1.079v-.561a.382.382,0,1,0-.764,0v.558a1.146,1.146,0,0,0,.378,2.227.382.382,0,1,1,0,.764Zm0,0" transform="translate(-146.999 -235.838)" style="fill: rgb(97, 186, 215);"/>
      <path id="Path_17609" data-name="Path 17609" d="M1.557,12.413a7.3,7.3,0,0,0,3.434.624,8.434,8.434,0,0,0,2.944-.408,1.144,1.144,0,0,0,.876.408h3.081a1.145,1.145,0,0,0,.853-1.91,1.143,1.143,0,0,0,0-1.528,1.143,1.143,0,0,0,0-1.528,1.145,1.145,0,0,0-.853-1.91H8.81c-.037,0-.074,0-.11.005A5.23,5.23,0,0,0,7.372,5.015a1.145,1.145,0,0,0-.364-1.8l.637-1.953a.382.382,0,0,0-.363-.5H6.071a1.146,1.146,0,0,0-2.161,0H2.7a.382.382,0,0,0-.363.5l.637,1.953a1.145,1.145,0,0,0-.363,1.8A5.448,5.448,0,0,0,0,9.6a2.944,2.944,0,0,0,1.557,2.814ZM12.273,8.836a.382.382,0,0,1-.382.382H8.81a.382.382,0,0,1,0-.764h3.081A.382.382,0,0,1,12.273,8.836Zm0,1.528a.382.382,0,0,1-.382.382H8.81a.382.382,0,1,1,0-.764h3.081A.382.382,0,0,1,12.273,10.364Zm-.382,1.91H8.81a.382.382,0,1,1,0-.764h3.081a.382.382,0,1,1,0,.764Zm.382-4.965a.382.382,0,0,1-.382.382H8.81a.382.382,0,1,1,0-.764h3.081A.382.382,0,0,1,12.273,7.308ZM6.507,4.634H3.463a.382.382,0,0,1,0-.764H6.519a.382.382,0,0,1,0,.764H6.507ZM4.227,1.528a.382.382,0,0,0,.382-.382.382.382,0,0,1,.764,0V1.91a.382.382,0,0,0,.764,0V1.528h.62L6.241,3.107H3.74L3.225,1.528ZM3.537,5.4H6.442A4.316,4.316,0,0,1,7.987,6.511a1.143,1.143,0,0,0-.031,1.561,1.143,1.143,0,0,0,0,1.528,1.143,1.143,0,0,0,0,1.528,1.141,1.141,0,0,0-.293.764c0,.008,0,.016,0,.023a7.719,7.719,0,0,1-2.674.359,6.617,6.617,0,0,1-3.073-.533A2.179,2.179,0,0,1,.764,9.6,4.634,4.634,0,0,1,3.537,5.4Zm0,0" transform="translate(0 0)" style="fill: rgb(97, 186, 215);"/>
    </g>
  </g>
</svg>