<?xml version="1.0" encoding="utf-8"?>
<svg width="15" height="18" viewBox="0 0 15 18" xmlns="http://www.w3.org/2000/svg">
  <defs>
    <clipPath id="clip-path">
      <rect id="Rectangle_112" data-name="Rectangle 112" width="15" height="18" fill="#fff" stroke="#fff" stroke-width="1"/>
    </clipPath>
  </defs>
  <g id="Dashboard" opacity="0.7" clip-path="url(#clip-path)">
    <g id="dashboard_9_" data-name="dashboard (9)" transform="translate(0.625 1.5)">
      <path id="Path_17514" data-name="Path 17514" d="M5,4.322H.945A.947.947,0,0,1,0,3.377V.946A.947.947,0,0,1,.945,0H5a.947.947,0,0,1,.946.945V3.377A.947.947,0,0,1,5,4.322ZM.945.811A.135.135,0,0,0,.81.946V3.377a.135.135,0,0,0,.135.135H5a.135.135,0,0,0,.135-.135V.946A.135.135,0,0,0,5,.811Zm0,0" transform="translate(0 0)" style="fill: rgb(97, 186, 215);"/>
      <path id="Path_17515" data-name="Path 17515" d="M5,220.9H.945A.947.947,0,0,1,0,219.951v-5.673a.947.947,0,0,1,.945-.946H5a.947.947,0,0,1,.946.946v5.673A.947.947,0,0,1,5,220.9ZM.945,214.143a.135.135,0,0,0-.135.135v5.673a.135.135,0,0,0,.135.135H5a.135.135,0,0,0,.135-.135v-5.673A.135.135,0,0,0,5,214.143Zm0,0" transform="translate(0 -208.107)" style="fill: rgb(97, 186, 215);"/>
      <path id="Path_17516" data-name="Path 17516" d="M282.33,345.654h-4.052a.947.947,0,0,1-.946-.945v-2.431a.947.947,0,0,1,.946-.946h4.052a.947.947,0,0,1,.945.946v2.431A.947.947,0,0,1,282.33,345.654Zm-4.052-3.512a.135.135,0,0,0-.135.135v2.431a.135.135,0,0,0,.135.135h4.052a.135.135,0,0,0,.135-.135v-2.431a.135.135,0,0,0-.135-.135Zm0,0" transform="translate(-270.486 -332.865)" style="fill: rgb(97, 186, 215);"/>
      <path id="Path_17517" data-name="Path 17517" d="M282.33,7.564h-4.052a.947.947,0,0,1-.946-.946V.946A.947.947,0,0,1,278.278,0h4.052a.947.947,0,0,1,.945.945V6.619A.947.947,0,0,1,282.33,7.564ZM278.278.811a.135.135,0,0,0-.135.135V6.619a.135.135,0,0,0,.135.135h4.052a.135.135,0,0,0,.135-.135V.946a.135.135,0,0,0-.135-.135Zm0,0" transform="translate(-270.486 0)" style="fill: rgb(97, 186, 215);"/>
    </g>
  </g>
</svg>