<svg xmlns="http://www.w3.org/2000/svg" width="15" height="15" viewBox="0 0 15 15">
  <g id="delete_" data-name="delete " transform="translate(-274 -157)">
    <g id="Path_19078" data-name="Path 19078" transform="translate(274 157)" fill="none">
      <path d="M7.5,0A7.5,7.5,0,1,1,0,7.5,7.5,7.5,0,0,1,7.5,0Z" stroke="none"/>
      <path d="M 7.5 0.25 C 3.502340316772461 0.25 0.25 3.502340316772461 0.25 7.5 C 0.25 11.49765968322754 3.502340316772461 14.75 7.5 14.75 C 11.49765968322754 14.75 14.75 11.49765968322754 14.75 7.5 C 14.75 3.502340316772461 11.49765968322754 0.25 7.5 0.25 M 7.5 0 C 11.64213943481445 0 15 3.35785961151123 15 7.5 C 15 11.64213943481445 11.64213943481445 15 7.5 15 C 3.35785961151123 15 0 11.64213943481445 0 7.5 C 0 3.35785961151123 3.35785961151123 0 7.5 0 Z" stroke="none" fill="#eb5050"/>
    </g>
    <path id="close_9_" data-name="close (9)" d="M4.141,3.636,6.867.91A.453.453,0,1,0,6.226.269L3.5,2.995.774.269A.453.453,0,0,0,.133.91L2.859,3.636.133,6.362A.453.453,0,1,0,.774,7L3.5,4.277,6.226,7a.453.453,0,0,0,.641-.641Zm0,0" transform="translate(278 160.864)" fill="#eb5050"/>
  </g>
</svg>
