<svg xmlns="http://www.w3.org/2000/svg" width="11.185" height="12" viewBox="0 0 11.185 12">
  <g id="delete-grey" transform="translate(-17.379)">
    <g id="Group_5625" data-name="Group 5625" transform="translate(17.379 1.802)">
      <g id="Group_5624" data-name="Group 5624">
        <g id="Group_5623" data-name="Group 5623">
          <path id="Path_18619" data-name="Path 18619" d="M305.95,175.09l-.939-.034-.2,5.561.939.034Z" transform="translate(-298.07 -172.755)" fill="#a8b1b8"/>
          <rect id="Rectangle_2469" data-name="Rectangle 2469" width="0.94" height="5.561" transform="translate(5.123 2.319)" fill="#a8b1b8"/>
          <path id="Path_18620" data-name="Path 18620" d="M159.562,180.61l-.2-5.561-.939.034.2,5.561Z" transform="translate(-155.113 -172.748)" fill="#a8b1b8"/>
          <path id="Path_18621" data-name="Path 18621" d="M17.379,76.867v.94h.979l.777,8.83a.47.47,0,0,0,.468.429h6.72a.47.47,0,0,0,.468-.429l.777-8.83h1v-.94Zm8.515,9.258h-5.86L19.3,77.807h7.324Z" transform="translate(-17.379 -76.867)" fill="#a8b1b8"/>
        </g>
      </g>
    </g>
    <g id="Group_5627" data-name="Group 5627" transform="translate(20.653)">
      <g id="Group_5626" data-name="Group 5626">
        <path id="Path_18622" data-name="Path 18622" d="M160.93,0h-3.07a.784.784,0,0,0-.783.783V2.272h.94V.94h2.757V2.272h.94V.783A.784.784,0,0,0,160.93,0Z" transform="translate(-157.076)" fill="#a8b1b8"/>
      </g>
    </g>
  </g>
</svg>
