<?xml version="1.0" encoding="utf-8"?>
<svg width="16" height="16" viewBox="0 0 16 16" xmlns="http://www.w3.org/2000/svg">
  <defs>
    <clipPath id="clip-path">
      <rect id="Rectangle_251" data-name="Rectangle 251" width="16" height="16" fill="#fff" stroke="#fff" stroke-width="0.5"/>
    </clipPath>
  </defs>
  <g id="design_selections" data-name="design selections" opacity="0.7" clip-path="url(#clip-path)" transform="matrix(1, 0, 0, 1, -0.27634, 0.856649)">
    <g id="paint-selection" transform="translate(1.778 0.889)">
      <path id="Path_17709" data-name="Path 17709" d="M27.025,1.949a.2.2,0,0,0,.2-.2V1.4a1.4,1.4,0,0,0-1.4-1.4H20.007a1.4,1.4,0,0,0-1.4,1.4V4.111H15.9a1.4,1.4,0,0,0-1.4,1.4v5.812a1.4,1.4,0,0,0,1.4,1.4h.376a.2.2,0,1,0,0-.4H15.9a1.009,1.009,0,0,1-1.008-1.007V5.514A1.009,1.009,0,0,1,15.9,4.507H18.6V7.215a1.4,1.4,0,0,0,1.4,1.4h.688l.173,3.716H17.063a.2.2,0,1,0,0,.4h3.849a1.024,1.024,0,0,0,.8.743,1.085,1.085,0,0,0,.213.021,1.024,1.024,0,0,0,.933-.6L23.42,11.7a.646.646,0,0,1,.748-.349l1.276.335a1.041,1.041,0,0,0,.97-1.772L25,8.618h.815a1.4,1.4,0,0,0,1.4-1.4V2.542a.2.2,0,0,0-.4,0V7.215a1.009,1.009,0,0,1-1.008,1.007H24.575L23.111,6.874V5.514a1.4,1.4,0,0,0-1.4-1.4H19V1.4A1.009,1.009,0,0,1,20.007.4h5.812A1.009,1.009,0,0,1,26.827,1.4v.349a.2.2,0,0,0,.2.2Zm-.749,9.042a.631.631,0,0,1-.73.315l-1.276-.335a1.041,1.041,0,0,0-1.206.563L22.5,12.727a.646.646,0,0,1-1.229-.245l-.256-5.5a.636.636,0,0,1,.372-.615.667.667,0,0,1,.279-.062.626.626,0,0,1,.431.172l4.049,3.729a.631.631,0,0,1,.129.785ZM21.708,4.507a1.009,1.009,0,0,1,1.008,1.008v1l-.351-.323A1.041,1.041,0,0,0,20.62,7l.057,1.222h-.669A1.009,1.009,0,0,1,19,7.215V4.507Z" transform="translate(-14.493 0)" stroke-width="0.5" style="fill: rgb(97, 186, 215); stroke: rgb(97, 186, 215);"/>
    </g>
  </g>
</svg>