<svg xmlns="http://www.w3.org/2000/svg" width="14.667" height="14.667" viewBox="0 0 14.667 14.667"><defs><style>.a{fill:#001f38;}.b{fill:#fff;}</style></defs><g transform="translate(0 0)"><path class="a" d="M7.334,0A7.333,7.333,0,1,1,0,7.334H0A7.312,7.312,0,0,1,7.292,0Z" transform="translate(0)"/><path class="b" d="M101.056.331,101.045.32A1.223,1.223,0,0,0,99.317.4l-4.37,4.784a.422.422,0,0,0-.089.151l-.514,1.54a.586.586,0,0,0,.555.771h0a.584.584,0,0,0,.235-.05l1.488-.651a.422.422,0,0,0,.142-.1l4.37-4.784A1.224,1.224,0,0,0,101.056.331ZM95.329,6.59l.3-.9.025-.028.571.522-.025.028Zm5.183-5.1L96.8,5.557l-.572-.522L99.94.967a.379.379,0,0,1,.535-.024l.012.011A.379.379,0,0,1,100.512,1.489Z" transform="translate(-90.454 4)"/></g></svg>