<svg xmlns="http://www.w3.org/2000/svg" width="15.167" height="15.167" viewBox="0 0 15.167 15.167">
  <g id="edit-white" transform="translate(0.25 0.25)">
    <path id="Path_18676" data-name="Path 18676" d="M7.334,0A7.333,7.333,0,1,1,0,7.334H0A7.312,7.312,0,0,1,7.292,0Z" fill="none" stroke="#fff" stroke-width="0.5"/>
    <path id="Path_18678" data-name="Path 18678" d="M101.056.331,101.045.32A1.223,1.223,0,0,0,99.317.4l-4.37,4.784a.422.422,0,0,0-.089.151l-.514,1.54a.586.586,0,0,0,.555.771h0a.584.584,0,0,0,.235-.05l1.488-.651a.422.422,0,0,0,.142-.1l4.37-4.784A1.224,1.224,0,0,0,101.056.331ZM95.329,6.59l.3-.9.025-.028.571.522-.025.028Zm5.183-5.1L96.8,5.557l-.572-.522L99.94.967a.379.379,0,0,1,.535-.024l.012.011A.379.379,0,0,1,100.512,1.489Z" transform="translate(-90.454 4)" fill="#fff"/>
  </g>
</svg>
