<svg id="SvgjsSvg1001" width="288" height="288" xmlns="http://www.w3.org/2000/svg" version="1.1" xmlns:xlink="http://www.w3.org/1999/xlink" xmlns:svgjs="http://svgjs.com/svgjs"><defs id="SvgjsDefs1002"></defs><g id="SvgjsG1008" transform="matrix(1,0,0,1,0,0)"><svg xmlns="http://www.w3.org/2000/svg" width="288" height="288" viewBox="0 0 12.13 13.233"><path fill="#a8b1b8" d="M48.086,138.8h-2.31a.311.311,0,0,0,0,.621h2.31a.9.9,0,0,1,.866.932v7.455a.9.9,0,0,1-.866.932H38.844a.9.9,0,0,1-.866-.932v-7.455a.9.9,0,0,1,.866-.932h2.6a.311.311,0,0,0,0-.621h-2.6a1.506,1.506,0,0,0-1.444,1.553v7.455a1.506,1.506,0,0,0,1.444,1.553h9.242a1.506,1.506,0,0,0,1.444-1.553v-7.455A1.506,1.506,0,0,0,48.086,138.8Z" transform="translate(-37.4 -136.129)" class="color07b9ec svgShape"></path><path fill="#a8b1b8" d="M127.128,5.529l2.221,2.221V.311a.311.311,0,1,1,.621,0V7.75l2.221-2.221a.3.3,0,0,1,.435,0,.3.3,0,0,1,0,.435l-2.749,2.749a.3.3,0,0,1-.435,0l-2.749-2.749a.308.308,0,1,1,.435-.435Z" transform="translate(-123.595)" class="color07b9ec svgShape"></path></svg></g></svg>