<svg xmlns="http://www.w3.org/2000/svg" width="11.6" height="13.612" viewBox="0 0 11.6 13.612">
  <g id="export_2_" data-name="export (2)" transform="translate(0.3 0.312)">
    <g id="Group_9380" data-name="Group 9380">
      <g id="Group_9379" data-name="Group 9379">
        <path id="Path_19185" data-name="Path 19185" d="M47.09,138.8H45a.282.282,0,0,0,0,.563h2.1a.819.819,0,0,1,.786.845v6.761a.819.819,0,0,1-.786.845H38.71a.819.819,0,0,1-.786-.845v-6.761a.819.819,0,0,1,.786-.845h2.357a.282.282,0,0,0,0-.563H38.71a1.366,1.366,0,0,0-1.31,1.408v6.761a1.366,1.366,0,0,0,1.31,1.408H47.09a1.366,1.366,0,0,0,1.31-1.408v-6.761A1.366,1.366,0,0,0,47.09,138.8Z" transform="translate(-37.4 -135.378)" fill="#001f38" stroke="#001f38" stroke-width="0.6"/>
        <path id="Path_19186" data-name="Path 19186" d="M127.079,1.819,129.093.586V4.715c0,.095.127.172.282.172s.282-.078.282-.172V.586l2.014,1.233a.4.4,0,0,0,.394,0,.128.128,0,0,0,0-.241L129.572.052a.4.4,0,0,0-.394,0l-2.493,1.526a.128.128,0,0,0,0,.241A.4.4,0,0,0,127.079,1.819Z" transform="translate(-123.875 0)" fill="#001f38" stroke="#001f38" stroke-width="0.6"/>
      </g>
    </g>
  </g>
</svg>
