<svg xmlns="http://www.w3.org/2000/svg" width="19.859" height="11.81" viewBox="0 0 19.859 11.81">
  <g id="eye-svgrepo" transform="translate(0 -100.736)">
    <g id="Group_9539" data-name="Group 9539" transform="translate(0 100.736)">
      <path id="Path_19194" data-name="Path 19194" d="M9.93,112.546a11.56,11.56,0,0,1-6.95-2.76,18.268,18.268,0,0,1-2.842-2.743.657.657,0,0,1,0-.8A18.272,18.272,0,0,1,2.979,103.5a11.561,11.561,0,0,1,6.95-2.76,11.56,11.56,0,0,1,6.95,2.76,18.271,18.271,0,0,1,2.842,2.743.657.657,0,0,1,0,.8,18.271,18.271,0,0,1-2.842,2.743A11.56,11.56,0,0,1,9.93,112.546Zm-8.6-5.9A18.273,18.273,0,0,0,3.654,108.8a10.734,10.734,0,0,0,6.276,2.514,10.734,10.734,0,0,0,6.276-2.514,18.274,18.274,0,0,0,2.322-2.163,18.267,18.267,0,0,0-2.322-2.163,10.734,10.734,0,0,0-6.276-2.514,10.734,10.734,0,0,0-6.276,2.514A18.265,18.265,0,0,0,1.332,106.641Z" transform="translate(0 -100.736)"/>
    </g>
    <g id="Group_9540" data-name="Group 9540" transform="translate(6.448 103.159)">
      <path id="Path_19195" data-name="Path 19195" d="M147,150.484a3.482,3.482,0,1,1,2.293-6.1.562.562,0,0,1-.74.845A2.359,2.359,0,1,0,149.36,147a.562.562,0,0,1,1.123,0A3.486,3.486,0,0,1,147,150.484Z" transform="translate(-143.52 -143.521)"/>
    </g>
    <g id="Group_9541" data-name="Group 9541" transform="translate(8.806 105.518)">
      <path id="Path_19196" data-name="Path 19196" d="M197.143,198.267a1.123,1.123,0,1,1,1.123-1.123A1.124,1.124,0,0,1,197.143,198.267Z" transform="translate(-196.02 -196.021)"/>
    </g>
    <line id="Line_1108" data-name="Line 1108" x2="19" y2="10.002" transform="translate(0.5 101.236)" fill="none" stroke="#001f38" stroke-width="1"/>
  </g>
</svg>
