<svg xmlns="http://www.w3.org/2000/svg" xmlns:xlink="http://www.w3.org/1999/xlink" width="77" height="77" viewBox="0 0 77 77"><defs><style>.a{fill:#001f38;}.b{fill:#fff;}.c{filter:url(#a);}</style><filter id="a" x="0" y="0" width="77" height="77" filterUnits="userSpaceOnUse"><feOffset input="SourceAlpha"/><feGaussianBlur stdDeviation="6" result="b"/><feFlood flood-opacity="0.251"/><feComposite operator="in" in2="b"/><feComposite in="SourceGraphic"/></filter></defs><g transform="translate(18 18)"><g class="c" transform="matrix(1, 0, 0, 1, -18, -18)"><path class="a" d="M20.5,0A20.5,20.5,0,1,1,0,20.5,20.5,20.5,0,0,1,20.5,0Z" transform="translate(18 18)"/></g><path class="b" d="M16.165,7.29H10.777a.317.317,0,0,1-.317-.317V1.585a1.585,1.585,0,1,0-3.17,0V6.973a.317.317,0,0,1-.317.317H1.585a1.585,1.585,0,1,0,0,3.17H6.973a.317.317,0,0,1,.317.317v5.388a1.585,1.585,0,1,0,3.17,0V10.777a.317.317,0,0,1,.317-.317h5.388a1.585,1.585,0,1,0,0-3.17Zm0,0" transform="translate(12 12)"/></g></svg>