<svg xmlns="http://www.w3.org/2000/svg" xmlns:xlink="http://www.w3.org/1999/xlink" width="27" height="37" viewBox="0 0 27 37"><defs><style>.a{fill:#edeeef;}.b{fill:#fff;}.c{fill:#a8b1b8;}.d{filter:url(#c);}.e{filter:url(#a);}</style><filter id="a" x="0" y="0" width="27" height="37" filterUnits="userSpaceOnUse"><feOffset dy="1" input="SourceAlpha"/><feGaussianBlur stdDeviation="1.5" result="b"/><feFlood flood-color="#666" flood-opacity="0.22"/><feComposite operator="in" in2="b"/><feComposite in="SourceGraphic"/></filter><filter id="c" x="0" y="0" width="27" height="37" filterUnits="userSpaceOnUse"><feOffset dy="2" input="SourceAlpha"/><feGaussianBlur stdDeviation="2.5" result="d"/><feFlood flood-opacity="0.122" result="e"/><feComposite operator="out" in="SourceGraphic" in2="d"/><feComposite operator="in" in="e"/><feComposite operator="in" in2="SourceGraphic"/></filter></defs><g transform="translate(4.5 3.5)"><g data-type="innerShadowGroup"><g class="e" transform="matrix(1, 0, 0, 1, -4.5, -3.5)"><path class="a" d="M14,0h4a0,0,0,0,1,0,0V28a0,0,0,0,1,0,0H14A14,14,0,0,1,0,14v0A14,14,0,0,1,14,0Z" transform="translate(4.5 3.5)"/></g><g class="d" transform="matrix(1, 0, 0, 1, -4.5, -3.5)"><path class="b" d="M14,0h4a0,0,0,0,1,0,0V28a0,0,0,0,1,0,0H14A14,14,0,0,1,0,14v0A14,14,0,0,1,14,0Z" transform="translate(4.5 3.5)"/></g></g><path class="c" d="M1.173.2l4.4,4.352a.464.464,0,0,1,0,.663l-4.4,4.352a.693.693,0,0,1-.972,0,.674.674,0,0,1,0-.96L3.967,4.881.2,1.159A.675.675,0,0,1,.2.2a.693.693,0,0,1,.972,0" transform="translate(6 9)"/></g></svg>