<svg xmlns="http://www.w3.org/2000/svg" xmlns:xlink="http://www.w3.org/1999/xlink" width="16" height="16" viewBox="0 0 16 16">
  <defs>
    <clipPath id="clip-path">
      <rect id="Rectangle_196" data-name="Rectangle 196" width="16" height="16" fill="#fff"/>
    </clipPath>
  </defs>
  <g id="images" opacity="0.7" clip-path="url(#clip-path)">
    <g id="image" transform="translate(1.333 1.333)">
      <g id="Group_515" data-name="Group 515">
        <g id="Group_514" data-name="Group 514">
          <path id="Path_17641" data-name="Path 17641" d="M11.63,0H1.7A1.706,1.706,0,0,0,0,1.7V11.63a1.706,1.706,0,0,0,1.7,1.7H11.63a1.706,1.706,0,0,0,1.7-1.7V1.7A1.706,1.706,0,0,0,11.63,0Zm.918,11.63a.919.919,0,0,1-.918.918H1.7a.919.919,0,0,1-.918-.918V10.2L3.37,8A.254.254,0,0,1,3.7,8L5.316,9.34a.393.393,0,0,0,.529-.025L9.692,5.463a.254.254,0,0,1,.377.019l2.479,3.052v3.1Zm0-4.341-1.869-2.3a1.04,1.04,0,0,0-1.543-.079l-3.594,3.6L4.2,7.392A1.038,1.038,0,0,0,2.861,7.4L.785,9.166V1.7A.919.919,0,0,1,1.7.785H11.63a.919.919,0,0,1,.918.918Z" fill="#fff"/>
        </g>
      </g>
      <g id="Group_517" data-name="Group 517" transform="translate(2.304 1.64)">
        <g id="Group_516" data-name="Group 516">
          <path id="Path_17642" data-name="Path 17642" d="M90.355,62.995a1.894,1.894,0,1,0,1.894,1.894A1.9,1.9,0,0,0,90.355,62.995Zm0,3a1.108,1.108,0,1,1,1.108-1.108A1.109,1.109,0,0,1,90.355,66Z" transform="translate(-88.461 -62.995)" fill="#fff"/>
        </g>
      </g>
    </g>
  </g>
</svg>
