<svg xmlns="http://www.w3.org/2000/svg" width="11.6" height="12.6" viewBox="0 0 11.6 12.6">
  <g id="import" transform="translate(0.3 0.3)">
    <g id="Group_9382" data-name="Group 9382">
      <g id="Group_9381" data-name="Group 9381">
        <path id="Path_19187" data-name="Path 19187" d="M47.09,138.8H45a.282.282,0,0,0,0,.563h2.1a.819.819,0,0,1,.786.845v6.761a.819.819,0,0,1-.786.845H38.71a.819.819,0,0,1-.786-.845v-6.761a.819.819,0,0,1,.786-.845h2.357a.282.282,0,0,0,0-.563H38.71a1.366,1.366,0,0,0-1.31,1.408v6.761a1.366,1.366,0,0,0,1.31,1.408H47.09a1.366,1.366,0,0,0,1.31-1.408v-6.761A1.366,1.366,0,0,0,47.09,138.8Z" transform="translate(-37.4 -136.378)" fill="#001f38" stroke="#001f38" stroke-width="0.6"/>
        <path id="Path_19188" data-name="Path 19188" d="M127.079,5.014l2.014,2.014V.282a.282.282,0,0,1,.563,0V7.028l2.014-2.014a.272.272,0,0,1,.394,0,.272.272,0,0,1,0,.394L129.572,7.9a.272.272,0,0,1-.394,0l-2.493-2.493a.279.279,0,1,1,.394-.394Z" transform="translate(-123.875)" fill="#001f38" stroke="#001f38" stroke-width="0.6"/>
      </g>
    </g>
  </g>
</svg>
