<svg xmlns="http://www.w3.org/2000/svg" width="21.818" height="21.818" viewBox="0 0 21.818 21.818"><defs><style>.a{fill:#fff;}.b{fill:#ee1237;}</style></defs><circle class="a" cx="9.5" cy="9.5" r="9.5" transform="translate(1 1.195)"/><path class="b" d="M32.144,23.88h-6.5a1.885,1.885,0,0,0-1.882,1.882v6.5a1.885,1.885,0,0,0,1.882,1.883h6.5a1.885,1.885,0,0,0,1.883-1.883v-6.5A1.885,1.885,0,0,0,32.144,23.88Zm-3.251,8.514a3.38,3.38,0,1,1,3.38-3.38A3.384,3.384,0,0,1,28.893,32.394Zm3.489-6.061a.8.8,0,1,1,.8-.8A.8.8,0,0,1,32.382,26.333Z" transform="translate(-17.984 -18.075)"/><path class="b" d="M38.8,36.971a1.952,1.952,0,1,0,1.952,1.951A1.954,1.954,0,0,0,38.8,36.971Z" transform="translate(-27.892 -27.984)"/><path class="b" d="M10.909,0A10.909,10.909,0,1,0,21.818,10.909,10.909,10.909,0,0,0,10.909,0Zm6.562,14.19A3.314,3.314,0,0,1,14.16,17.5h-6.5A3.314,3.314,0,0,1,4.347,14.19v-6.5A3.314,3.314,0,0,1,7.658,4.376h6.5a3.314,3.314,0,0,1,3.311,3.311Z"/></svg>