<svg xmlns="http://www.w3.org/2000/svg" width="66" height="63" viewBox="0 0 66 63"><defs><style>.a{fill:#fff;}</style></defs><g transform="translate(0 -7.5)"><path class="a" d="M153,7.5a3,3,0,0,0-3,3v12a3,3,0,0,0,6,0v-12A3,3,0,0,0,153,7.5Z" transform="translate(-120)"/><path class="a" d="M153,262.5a3,3,0,0,0-3,3v6a3,3,0,0,0,6,0v-6A3,3,0,0,0,153,262.5Z" transform="translate(-120 -204)"/><path class="a" d="M255,157.5H243a3,3,0,0,0,0,6h12a3,3,0,0,0,0-6Z" transform="translate(-192 -120)"/><path class="a" d="M18,160.5a3,3,0,0,0-3-3H3a3,3,0,0,0,0,6H15A3,3,0,0,0,18,160.5Z" transform="translate(0 -120)"/><path class="a" d="M227.246,52.312a3,3,0,0,0-4.243,0L214.518,60.8a3,3,0,1,0,4.243,4.243l8.485-8.485A3,3,0,0,0,227.246,52.312Z" transform="translate(-170.912 -35.147)"/><path class="a" d="M53.3,222.018,44.814,230.5a3,3,0,0,0,4.243,4.243l8.485-8.485a3,3,0,0,0-4.243-4.243Z" transform="translate(-35.148 -170.912)"/><path class="a" d="M49.056,52.313a3,3,0,1,0-4.243,4.243L53.3,65.04A3,3,0,1,0,57.541,60.8Z" transform="translate(-35.148 -35.147)"/></g></svg>