<svg id="SvgjsSvg1014" width="288" height="288" xmlns="http://www.w3.org/2000/svg" version="1.1" xmlns:xlink="http://www.w3.org/1999/xlink" xmlns:svgjs="http://svgjs.com/svgjs"><defs id="SvgjsDefs1015"></defs><g id="SvgjsG1016"><svg xmlns="http://www.w3.org/2000/svg" width="288" height="288" version="1.0" viewBox="0 0 512 512"><g transform="matrix(.1 0 0 -.1 0 512)" fill="#eb5050" class="color000 svgShape"><path d="M2180 3720 l0 -1400 380 0 380 0 0 1400 0 1400 -380 0 -380 0 0-1400z" fill="#eb5050" class="color000 svgShape"></path><path d="M1800 4404 c-135 -49 -377 -171 -500 -252 -201 -133 -415 -336 -556
-527 -188 -255 -306 -504 -384 -810 -56 -218 -63 -286 -58 -593 4 -245 7 -277
32 -392 86 -391 267 -763 503 -1035 329 -377 752 -629 1244 -739 170 -38 323
-49 574 -43 200 5 233 8 360 37 486 110 871 324 1190 662 169 180 282 346 404
593 76 154 107 240 151 420 56 234 63 298 57 592 -4 242 -7 280 -31 393 -77
356 -237 700 -455 975 -122 154 -352 364 -515 470 -165 107 -461 248 -588 280
l-28 7 1 -208 c1 -115 4 -221 8 -235 5 -22 31 -39 146 -98 179 -93 281 -161
402 -270 180 -161 322 -340 413 -522 215 -425 263 -867 145 -1309 -62 -230
-192 -488 -333 -660 -272 -331 -616 -547 -1032 -647 -93 -23 -133 -26 -341
-30 -251 -5 -314 0 -480 42 -243 61 -461 163 -644 300 -121 91 -299 268 -386
384 -146 195 -267 468 -325 734 -24 111 -27 141 -27 342 0 200 2 231 26 345
35 166 76 290 147 437 103 216 224 380 409 554 126 119 246 202 436 300 115
59 141 76 146 98 16 65 7 442 -10 440 -3 0 -49 -16 -101 -35z" fill="#eb5050" class="color000 svgShape"></path></g></svg></g></svg>