<svg xmlns="http://www.w3.org/2000/svg" xmlns:xlink="http://www.w3.org/1999/xlink" width="20" height="20" viewBox="0 0 20 20"><defs><style>.a{fill:#eb5050;stroke:#eb5050;stroke-width:0.5px;}.b{clip-path:url(#a);}</style><clipPath id="a"><rect class="a" width="20" height="20"/></clipPath></defs><g class="b" transform="translate(0 20) rotate(-90)"><g transform="translate(1.111 2.222)"><g transform="translate(14.834 6.249)"><g transform="translate(0 0)"><path class="a" d="M2.723,1.437.821.1A.521.521,0,0,0,0,.521V3.2a.521.521,0,0,0,.821.426l1.9-1.341A.521.521,0,0,0,2.723,1.437Z"/></g></g><g transform="translate(0 0)"><g transform="translate(0 0)"><path class="a" d="M14.947,11.455a.521.521,0,0,0-.712.19,7.069,7.069,0,1,1,0-7.069.521.521,0,1,0,.9-.522,8.111,8.111,0,1,0,0,8.112A.521.521,0,0,0,14.947,11.455Z"/></g></g><g transform="translate(5.18 7.59)"><g transform="translate(0 0)"><path class="a" d="M.521,0a.521.521,0,0,0,0,1.042H8.612V0Z"/></g></g></g></g></svg>