<svg xmlns="http://www.w3.org/2000/svg" width="30.1" height="25.989" viewBox="0 0 30.1 25.989">
  <g id="message_icon" transform="translate(0.25 0.25)">
    <path id="Path_17878" data-name="Path 17878" d="M112.833,110.027h-20.1a4.761,4.761,0,0,0-4.748,4.764v13.236a4.761,4.761,0,0,0,4.748,4.764h8.224a1.326,1.326,0,0,0,0-2.651H92.729a2.111,2.111,0,0,1-2.105-2.112v-12.59l9.65,6.02a4.706,4.706,0,0,0,5.015,0l9.65-6.02v3.709a1.321,1.321,0,1,0,2.643,0V114.79a4.761,4.761,0,0,0-4.748-4.764Zm-8.94,9.178a2.088,2.088,0,0,1-2.224,0l-10-6.239a2.084,2.084,0,0,1,1.06-.289h20.1a2.084,2.084,0,0,1,1.06.289Zm0,0" transform="translate(-87.981 -110.027)" fill="#edeeef" stroke="#fff" stroke-width="0.5"/>
    <path id="Path_17879" data-name="Path 17879" d="M270.932,243.348l-6.165,6.151a1.3,1.3,0,0,0-.325.542l-1.342,4.42a1.3,1.3,0,0,0,1.59,1.629l4.532-1.256a1.3,1.3,0,0,0,.571-.332l6.152-6.14a3.545,3.545,0,0,0-5.012-5.014Zm2.505,1.561a.947.947,0,0,1,.67,1.615l-.093.093-1.339-1.339.092-.092A.941.941,0,0,1,273.437,244.909Zm-5.239,7.514-1.927.534.561-1.849,4-3.995,1.339,1.339Zm0,0" transform="translate(-247.382 -230.398)" fill="#edeeef"/>
  </g>
</svg>
