<svg id="right_arrow" data-name="right arrow" xmlns="http://www.w3.org/2000/svg" width="32" height="32" viewBox="0 0 32 32">
  <path id="Path_19076" data-name="Path 19076" d="M16,0A16,16,0,1,1,0,16,16,16,0,0,1,16,0Z" fill="#07b9ec"/>
  <g id="arrow-pointing-to-right_1_" data-name="arrow-pointing-to-right (1)" transform="translate(7.822 9.955)">
    <path id="Path_18709" data-name="Path 18709" d="M16.834,47.227l-5.079-5.079a.794.794,0,1,0-1.122,1.122l3.724,3.724H.794a.794.794,0,0,0,0,1.587H14.357l-3.724,3.724a.794.794,0,0,0,1.122,1.122l5.079-5.079A.794.794,0,0,0,16.834,47.227Z" transform="translate(0 -41.916)" fill="#fff"/>
  </g>
</svg>
