<svg xmlns="http://www.w3.org/2000/svg" width="32" height="32" viewBox="0 0 32 32">
  <g id="next" transform="translate(-586 -161)">
    <g id="Path_19076" data-name="Path 19076" transform="translate(586 161)" fill="none">
      <path d="M16,0A16,16,0,1,1,0,16,16,16,0,0,1,16,0Z" stroke="none"/>
      <path d="M 16 0.5 C 11.85980033874512 0.5 7.967409133911133 2.112279891967773 5.039840698242188 5.039840698242188 C 2.112279891967773 7.967409133911133 0.5 11.85980033874512 0.5 16 C 0.5 20.14019966125488 2.112279891967773 24.03258895874023 5.039840698242188 26.96015930175781 C 7.967409133911133 29.88772010803223 11.85980033874512 31.5 16 31.5 C 20.14019966125488 31.5 24.03258895874023 29.88772010803223 26.96015930175781 26.96015930175781 C 29.88772010803223 24.03258895874023 31.5 20.14019966125488 31.5 16 C 31.5 11.85980033874512 29.88772010803223 7.967409133911133 26.96015930175781 5.039840698242188 C 24.03258895874023 2.112279891967773 20.14019966125488 0.5 16 0.5 M 16 0 C 24.8365592956543 0 32 7.163440704345703 32 16 C 32 24.8365592956543 24.8365592956543 32 16 32 C 7.163440704345703 32 0 24.8365592956543 0 16 C 0 7.163440704345703 7.163440704345703 0 16 0 Z" stroke="none" fill="#07b9ec"/>
    </g>
    <g id="arrow-pointing-to-right_1_" data-name="arrow-pointing-to-right (1)" transform="translate(593.822 170.955)">
      <path id="Path_18709" data-name="Path 18709" d="M16.834,47.227l-5.079-5.079a.794.794,0,1,0-1.122,1.122l3.724,3.724H.794a.794.794,0,0,0,0,1.587H14.357l-3.724,3.724a.794.794,0,0,0,1.122,1.122l5.079-5.079A.794.794,0,0,0,16.834,47.227Z" transform="translate(0 -41.916)" fill="#07b9ec"/>
    </g>
  </g>
</svg>
