<svg xmlns="http://www.w3.org/2000/svg" xmlns:xlink="http://www.w3.org/1999/xlink" width="19" height="22" viewBox="0 0 19 22">
  <defs>
    <clipPath id="clip-path">
      <rect id="Rectangle_432" data-name="Rectangle 432" width="19" height="22" fill="#edeeef"/>
    </clipPath>
  </defs>
  <g id="notifications" clip-path="url(#clip-path)">
    <path id="bell_4_" data-name="bell (4)" d="M67.383,14.325a2.8,2.8,0,0,1-.85-1.157,13.391,13.391,0,0,1-.886-5.291c0-.007,0-.014,0-.02A5.107,5.107,0,0,0,62.64,3.224V2.005a2.006,2.006,0,0,0-2-2.005h-.166a2.006,2.006,0,0,0-2,2.005V3.224a5.107,5.107,0,0,0-3.007,4.652,13.391,13.391,0,0,1-.886,5.291,2.8,2.8,0,0,1-.85,1.157.513.513,0,0,0-.282.583.537.537,0,0,0,.529.412h3.865a2.715,2.715,0,0,0,5.43,0h3.865a.537.537,0,0,0,.529-.412A.513.513,0,0,0,67.383,14.325ZM59.526,2.005a.949.949,0,0,1,.947-.949h.166a.949.949,0,0,1,.947.949v.876a5.107,5.107,0,0,0-2.06,0V2.005Zm1.03,14.938A1.664,1.664,0,0,1,58.9,15.32h3.32A1.664,1.664,0,0,1,60.556,16.944Zm2.123-2.68h-7.5a5.529,5.529,0,0,0,.276-.485,13.351,13.351,0,0,0,1.065-5.9,4.037,4.037,0,1,1,8.073,0q0,.01,0,.019a13.324,13.324,0,0,0,1.065,5.881,5.528,5.528,0,0,0,.276.485Z" transform="translate(-51.434 2.352)" fill="#edeeef"/>
  </g>
</svg>
