<svg xmlns="http://www.w3.org/2000/svg" width="22.688" height="26.625" viewBox="0 0 22.688 26.625">
  <path id="Path_19138" data-name="Path 19138" d="M13.219.531a2.557,2.557,0,0,1-1.875.781A2.557,2.557,0,0,1,9.469.531a2.522,2.522,0,0,1-.781-1.844H14A2.522,2.522,0,0,1,13.219.531ZM20-6.687,22.688-4v1.313H0V-4L2.688-6.687V-14a8.408,8.408,0,0,1,1.875-5.406,8.45,8.45,0,0,1,4.75-3.031v-.875a1.893,1.893,0,0,1,.594-1.437,2.014,2.014,0,0,1,1.438-.562,1.908,1.908,0,0,1,1.406.563,1.947,1.947,0,0,1,.563,1.438v.875a8.466,8.466,0,0,1,4.813,3.031A8.408,8.408,0,0,1,20-14ZM17.313-5.312V-14a5.786,5.786,0,0,0-1.75-4.25A5.786,5.786,0,0,0,11.313-20a5.786,5.786,0,0,0-4.25,1.75A5.786,5.786,0,0,0,5.313-14v8.688Z" transform="translate(0 25.313)" fill="#edeeef"/>
</svg>
