<svg id="notificationicon" xmlns="http://www.w3.org/2000/svg" width="29" height="29" viewBox="0 0 29 29">
  <g id="Ellipse_202" data-name="Ellipse 202" fill="none" stroke="#28a745" stroke-width="0.5">
    <circle cx="14.5" cy="14.5" r="14.5" stroke="none"/>
    <circle cx="14.5" cy="14.5" r="14.25" fill="none"/>
  </g>
  <g id="Group_704" data-name="Group 704" transform="translate(8 7)">
    <path id="bell_4_" data-name="bell (4)" d="M65.2,12.088a2.36,2.36,0,0,1-.717-.977,11.3,11.3,0,0,1-.748-4.465c0-.006,0-.011,0-.017A4.31,4.31,0,0,0,61.2,2.72V1.692A1.693,1.693,0,0,0,59.513,0h-.14a1.693,1.693,0,0,0-1.689,1.692V2.72a4.31,4.31,0,0,0-2.537,3.926,11.3,11.3,0,0,1-.748,4.465,2.36,2.36,0,0,1-.717.977.433.433,0,0,0-.238.492.453.453,0,0,0,.446.348h3.262a2.291,2.291,0,0,0,4.582,0H65a.453.453,0,0,0,.446-.348A.433.433,0,0,0,65.2,12.088Zm-6.63-10.4a.8.8,0,0,1,.8-.8h.14a.8.8,0,0,1,.8.8v.739a4.31,4.31,0,0,0-1.738,0V1.692ZM59.443,14.3a1.4,1.4,0,0,1-1.4-1.37h2.8A1.4,1.4,0,0,1,59.443,14.3Zm1.792-2.262h-6.33a4.664,4.664,0,0,0,.233-.409,11.266,11.266,0,0,0,.9-4.981,3.406,3.406,0,1,1,6.813,0c0,.005,0,.011,0,.016a11.244,11.244,0,0,0,.9,4.963,4.664,4.664,0,0,0,.233.409Z" transform="translate(-53.434 0)" fill="#28a745"/>
  </g>
</svg>
