<svg id="openitem_icon" xmlns="http://www.w3.org/2000/svg" width="12.5" height="14.815" viewBox="0 0 12.5 14.815">
  <g id="verified">
    <path id="Path_17607" data-name="Path 17607" d="M52.143,2.4,46.472.044a.579.579,0,0,0-.444,0L40.357,2.4A.579.579,0,0,0,40,2.933V5.8a9.691,9.691,0,0,0,6.031,8.976.579.579,0,0,0,.437,0A9.691,9.691,0,0,0,52.5,5.8V2.933A.579.579,0,0,0,52.143,2.4Zm-.8,3.4a8.536,8.536,0,0,1-5.093,7.812A8.536,8.536,0,0,1,41.157,5.8V3.32L46.25,1.205,51.343,3.32ZM45.61,7.747,48.1,5.259a.579.579,0,1,1,.818.818l-2.9,2.9a.579.579,0,0,1-.818,0L43.584,7.357a.579.579,0,0,1,.818-.818Z" transform="translate(-40 0)" fill="#ffe330"/>
  </g>
</svg>
