<svg id="open-folder-svgrepo-com" xmlns="http://www.w3.org/2000/svg" width="14.67" height="12.507" viewBox="0 0 14.67 12.507">
  <g id="Group_9492" data-name="Group 9492">
    <path id="Path_19101" data-name="Path 19101" d="M.742,13.932a.923.923,0,0,0,.82.807l10.9,1.006.077,0a.768.768,0,0,0,.572-.247.776.776,0,0,0,.2-.6l-.043-.514,1.391-9.584a.78.78,0,0,0-.781-.9H6.656a.429.429,0,0,1-.2-.086l-.167-.177a1.372,1.372,0,0,0-.926-.4H2.677a.963.963,0,0,0-.9.692l-.62,2.3H.8A.793.793,0,0,0,0,7.117ZM2.727,4.243H5.362a.429.429,0,0,1,.2.086l.167.177a1.373,1.373,0,0,0,.926.4h6.979L12.9,9.964l-.306-3.677a.868.868,0,0,0-.86-.791H5a1.24,1.24,0,0,0-.934.467l-.151.2a.3.3,0,0,1-.135.069H2.19Zm1.052,2.99a1.24,1.24,0,0,0,.934-.467l.151-.2A.3.3,0,0,1,5,6.5h6.609l.686,8.229L1.73,13.75,1.023,7.233Z" transform="translate(0 -3.242)" fill="#001f38"/>
  </g>
</svg>
