<svg xmlns="http://www.w3.org/2000/svg" width="7.14" height="7.645" viewBox="0 0 7.14 7.645">
  <path id="Path_18678" data-name="Path 18678" d="M101.056.331,101.045.32A1.223,1.223,0,0,0,99.317.4l-4.37,4.784a.422.422,0,0,0-.089.151l-.514,1.54a.586.586,0,0,0,.555.771h0a.584.584,0,0,0,.235-.05l1.488-.651a.422.422,0,0,0,.142-.1l4.37-4.784A1.224,1.224,0,0,0,101.056.331ZM95.329,6.59l.3-.9.025-.028.571.522-.025.028Zm5.183-5.1L96.8,5.557l-.572-.522L99.94.967a.379.379,0,0,1,.535-.024l.012.011A.379.379,0,0,1,100.512,1.489Z" transform="translate(-94.314)" fill="#001f38"/>
</svg>
