<?xml version="1.0" encoding="utf-8"?>
<svg width="16" height="16" viewBox="0 0 16 16" xmlns="http://www.w3.org/2000/svg">
  <defs>
    <clipPath id="clip-path">
      <rect id="Rectangle_250" data-name="Rectangle 250" width="16" height="16" fill="#fff"/>
    </clipPath>
  </defs>
  <g id="plan_specifications" data-name="plan/specifications" opacity="0.7" clip-path="url(#clip-path)">
    <g id="planning_1_" data-name="planning (1)" transform="translate(1.778 0.889)">
      <path id="Path_17710" data-name="Path 17710" d="M20.718,0V1.842H20v.814h.718V4.2H20v.814h.718V6.556H20V7.37h.718V8.913H20v.814h.718V11.27H20v.814h.718v1.842h12.12V0Zm11.3,13.112H21.534V12.084h.718V11.27h-.718V9.727h.718V8.913h-.718V7.37h.718V6.556h-.718V5.013h.718V4.2h-.718V2.656h.718V1.842h-.718V.814H32.022Z" transform="translate(-20)" style="fill: rgb(97, 186, 215);"/>
      <path id="Path_17711" data-name="Path 17711" d="M309.2,116.808h2.646v.814H309.2Z" transform="translate(-301.338 -113.631)" style="fill: rgb(97, 186, 215);"/>
      <path id="Path_17712" data-name="Path 17712" d="M309.2,241.115h2.646v.814H309.2Z" transform="translate(-301.338 -234.557)" style="fill: rgb(97, 186, 215);"/>
      <path id="Path_17713" data-name="Path 17713" d="M309.2,375.231h2.646v.814H309.2Z" transform="translate(-301.338 -365.025)" style="fill: rgb(97, 186, 215);"/>
      <path id="Path_17714" data-name="Path 17714" d="M152.9,83.22l-.577-.576-1.32,1.317-.611-.61-.577.576,1.188,1.185Z" transform="translate(-146.289 -80.396)" style="fill: rgb(97, 186, 215);"/>
      <path id="Path_17715" data-name="Path 17715" d="M152.9,209.366l-.577-.576-1.32,1.317-.611-.61-.577.576,1.188,1.185Z" transform="translate(-146.289 -203.111)" style="fill: rgb(97, 186, 215);"/>
      <path id="Path_17716" data-name="Path 17716" d="M152.9,335.513l-.577-.576-1.32,1.317-.611-.61-.577.576,1.188,1.185Z" transform="translate(-146.289 -325.827)" style="fill: rgb(97, 186, 215);"/>
    </g>
  </g>
</svg>