<svg xmlns="http://www.w3.org/2000/svg" width="13.165" height="12.143" viewBox="0 0 13.165 12.143"><defs><style>.a{fill:#5d5d5d;}</style></defs><path class="a" d="M12.237,12.439H10.762V10.031a.4.4,0,0,0-.4-.4H2.8a.4.4,0,0,0-.4.4v2.408H.929A.93.93,0,0,0,0,13.368v5.107a.93.93,0,0,0,.929.929H2.4v1.975a.4.4,0,0,0,.4.4h7.562a.4.4,0,0,0,.4-.4V19.4h1.475a.93.93,0,0,0,.929-.929V13.368A.93.93,0,0,0,12.237,12.439ZM3.2,10.429H9.966v2.01H3.2ZM9.966,20.98H3.2V17.031H9.966Zm2.4-2.505a.134.134,0,0,1-.133.133H10.762V16.633a.4.4,0,0,0-.4-.4H2.8a.4.4,0,0,0-.4.4v1.974H.929A.134.134,0,0,1,.8,18.475V13.368a.134.134,0,0,1,.133-.133H12.237a.134.134,0,0,1,.133.133v5.107Z" transform="translate(0 -9.633)"/><circle class="a" cx="0.566" cy="0.566" r="0.566" transform="translate(9.798 4.536)"/><path class="a" d="M86.427,163.822H82.805a.4.4,0,1,0,0,.8h3.622a.4.4,0,1,0,0-.8Z" transform="translate(-78.033 -155.639)"/><path class="a" d="M86.427,193.623H82.805a.4.4,0,1,0,0,.8h3.622a.4.4,0,1,0,0-.8Z" transform="translate(-78.033 -183.858)"/></svg>