<svg xmlns="http://www.w3.org/2000/svg" xmlns:xlink="http://www.w3.org/1999/xlink" width="22" height="22" viewBox="0 0 22 22"><defs><style>.a{fill:#edeeef;}.b{clip-path:url(#a);}</style><clipPath id="a"><rect class="a" width="22" height="22"/></clipPath></defs><g class="b"><g transform="translate(3 2)"><path class="a" d="M54.754,2.915,47.863.054a.7.7,0,0,0-.539,0L40.434,2.915A.7.7,0,0,0,40,3.564V7.042a11.775,11.775,0,0,0,7.328,10.906.7.7,0,0,0,.531,0A11.775,11.775,0,0,0,55.188,7.042V3.564A.7.7,0,0,0,54.754,2.915Zm-.973,4.127a10.371,10.371,0,0,1-6.188,9.491,10.371,10.371,0,0,1-6.188-9.491V4.034l6.188-2.569,6.188,2.569Zm-6.965,2.37L49.839,6.39a.7.7,0,1,1,.994.994L47.314,10.9a.7.7,0,0,1-.994,0L44.354,8.939a.7.7,0,0,1,.994-.994Z" transform="translate(-40 0)"/></g></g></svg>