<svg xmlns="http://www.w3.org/2000/svg" xmlns:xlink="http://www.w3.org/1999/xlink" width="15" height="15" viewBox="0 0 15 15">
  <defs>
    <clipPath id="clip-path">
      <rect id="Rectangle_118" data-name="Rectangle 118" width="15" height="15" fill="#fff"/>
    </clipPath>
  </defs>
  <g id="QA_QC" data-name="QA/QC" opacity="0.7" clip-path="url(#clip-path)">
    <g id="control-system" transform="translate(0.828 0.625)">
      <g id="Group_370" data-name="Group 370">
        <path id="Path_17508" data-name="Path 17508" d="M13.117,5.475H12.3a.028.028,0,0,1-.028-.02A5.622,5.622,0,0,0,11.6,3.809a.028.028,0,0,1,0-.034l.576-.576a.423.423,0,0,0,0-.6L10.94,1.366a.423.423,0,0,0-.6,0l-.576.576a.028.028,0,0,1-.034,0,5.621,5.621,0,0,0-1.645-.682.028.028,0,0,1-.02-.028V.423A.424.424,0,0,0,7.643,0H5.9a.424.424,0,0,0-.423.423v.812a.028.028,0,0,1-.02.028,5.622,5.622,0,0,0-1.645.682.028.028,0,0,1-.034,0L3.2,1.366a.423.423,0,0,0-.6,0L1.366,2.6a.423.423,0,0,0,0,.6l.576.576a.028.028,0,0,1,0,.034,5.622,5.622,0,0,0-.682,1.645.028.028,0,0,1-.028.02H.423A.424.424,0,0,0,0,5.9V7.644a.424.424,0,0,0,.423.423h.812a.028.028,0,0,1,.028.02,5.622,5.622,0,0,0,.682,1.645.028.028,0,0,1,0,.034l-.576.576a.423.423,0,0,0,0,.6L2.6,12.176a.423.423,0,0,0,.6,0l.576-.576a.028.028,0,0,1,.034,0,5.622,5.622,0,0,0,1.645.682.028.028,0,0,1,.02.028v.812a.424.424,0,0,0,.423.423H7.643a.424.424,0,0,0,.423-.423v-.812a.028.028,0,0,1,.02-.028A5.622,5.622,0,0,0,9.732,11.6a.028.028,0,0,1,.034,0l.576.576a.423.423,0,0,0,.6,0l.291-.291a.2.2,0,0,0-.28-.28l-.291.291a.027.027,0,0,1-.039,0l-.576-.576a.422.422,0,0,0-.522-.061,5.227,5.227,0,0,1-1.529.634.422.422,0,0,0-.324.413v.812a.027.027,0,0,1-.027.027H5.9a.027.027,0,0,1-.027-.027v-.812a.422.422,0,0,0-.324-.413,5.226,5.226,0,0,1-1.53-.634.422.422,0,0,0-.522.061l-.576.576a.027.027,0,0,1-.039,0L1.646,10.661a.027.027,0,0,1,0-.039l.576-.576a.422.422,0,0,0,.061-.522A5.226,5.226,0,0,1,1.648,8a.422.422,0,0,0-.413-.324H.423A.027.027,0,0,1,.4,7.644V5.9a.027.027,0,0,1,.027-.027h.812a.422.422,0,0,0,.413-.324,5.226,5.226,0,0,1,.634-1.53.422.422,0,0,0-.061-.522l-.576-.576a.027.027,0,0,1,0-.039L2.88,1.646a.027.027,0,0,1,.039,0l.576.576a.422.422,0,0,0,.522.061,5.225,5.225,0,0,1,1.53-.634.422.422,0,0,0,.324-.413V.423A.027.027,0,0,1,5.9.4H7.643A.027.027,0,0,1,7.67.423v.812a.422.422,0,0,0,.324.413,5.225,5.225,0,0,1,1.53.634.422.422,0,0,0,.522-.061l.576-.576a.027.027,0,0,1,.039,0L11.895,2.88a.027.027,0,0,1,0,.039l-.576.576a.422.422,0,0,0-.061.522,5.226,5.226,0,0,1,.634,1.53.422.422,0,0,0,.413.324h.812a.027.027,0,0,1,.027.027V7.644a.027.027,0,0,1-.027.027h-.812A.422.422,0,0,0,11.892,8a5.226,5.226,0,0,1-.634,1.53.422.422,0,0,0,.061.522l.576.576a.027.027,0,0,1,0,.039l-.295.295a.2.2,0,0,0,.28.28l.294-.295a.423.423,0,0,0,0-.6L11.6,9.767a.028.028,0,0,1,0-.034,5.622,5.622,0,0,0,.682-1.645.028.028,0,0,1,.028-.02h.812a.424.424,0,0,0,.423-.423V5.9a.424.424,0,0,0-.423-.423Z" transform="translate(0 0)" fill="#fff" stroke="#fff" stroke-width="0.5"/>
        <path id="Path_17509" data-name="Path 17509" d="M95.795,98.976a.2.2,0,0,0-.225.167,4.244,4.244,0,1,0,4.2-3.619A4.245,4.245,0,0,0,95.823,98.2l-.008.02a.2.2,0,1,0,.368.145l.008-.02a3.851,3.851,0,1,1-.271,1.422,3.9,3.9,0,0,1,.042-.568A.2.2,0,0,0,95.795,98.976Z" transform="translate(-92.998 -92.998)" fill="#fff" stroke="#fff" stroke-width="0.5"/>
        <path id="Path_17510" data-name="Path 17510" d="M163.1,182.436h.024a.859.859,0,0,0,.6-.274l2.217-2.4a.854.854,0,1,0-1.255-1.159l-1.625,1.759-.464-.449a.854.854,0,0,0-1.187,1.228l1.093,1.056A.85.85,0,0,0,163.1,182.436Zm-1.422-2.228a.459.459,0,0,1,.648-.011l.61.59a.2.2,0,0,0,.283-.008l1.762-1.908a.458.458,0,0,1,.673.622l-2.217,2.4a.458.458,0,0,1-.655.019l-1.093-1.056A.459.459,0,0,1,161.677,180.207Z" transform="translate(-156.891 -173.61)" fill="#fff" stroke="#fff" stroke-width="0.5"/>
      </g>
    </g>
  </g>
</svg>
