<svg id="question_4_" data-name="question (4)" xmlns="http://www.w3.org/2000/svg" width="15" height="15" viewBox="0 0 15 15">
  <path id="question_4_2" data-name="question (4)" d="M7.47,11.748a.586.586,0,1,1,.586-.586A.586.586,0,0,1,7.47,11.748Zm.586-2.637V8.324A2.443,2.443,0,1,0,5.751,4.2a2.4,2.4,0,0,0-.742,1.742.586.586,0,0,0,1.172,0,1.237,1.237,0,0,1,.383-.9,1.3,1.3,0,0,1,.957-.361,1.265,1.265,0,0,1,.232,2.5,1.1,1.1,0,0,0-.869,1.075v.844a.586.586,0,1,0,1.172,0Zm3.324,4.808a.586.586,0,1,0-.607-1,6.384,6.384,0,1,1,1.982-1.9.586.586,0,1,0,.974.651A7.5,7.5,0,0,0,2.2,2.2,7.5,7.5,0,0,0,11.38,13.919Zm0,0" transform="translate(0.001 0)" opacity="0.6"/>
</svg>
