<svg id="SvgjsSvg1001" width="288" height="288" xmlns="http://www.w3.org/2000/svg" version="1.1" xmlns:xlink="http://www.w3.org/1999/xlink" xmlns:svgjs="http://svgjs.com/svgjs"><defs id="SvgjsDefs1002"></defs><g id="SvgjsG1008" transform="matrix(1,0,0,1,0,0)"><svg xmlns="http://www.w3.org/2000/svg" xmlns:svgjs="http://svgjs.com/svgjs" xmlns:xlink="http://www.w3.org/1999/xlink" width="288" height="288"><svg xmlns="http://www.w3.org/2000/svg" width="288" height="288" viewBox="0 0 16 16"><defs><clipPath id="a"><rect width="16" height="16" fill="#001f38" class="colorfff svgShape color6cf" data-name="Rectangle 158"></rect></clipPath></defs><g class="color000 svgShape" clip-path="url(#a)" opacity=".7" fill="#000000"><g class="color000 svgShape" data-name="settings (12)" transform="translate(.889 .889)" fill="#000000"><path fill="#001f38" d="M7.321,13.778H6.457a1.27,1.27,0,0,1-1.268-1.268v-.293a5.562,5.562,0,0,1-.864-.359l-.207.207a1.268,1.268,0,0,1-1.794,0l-.611-.611a1.268,1.268,0,0,1,0-1.794l.207-.207a5.563,5.563,0,0,1-.359-.864H1.268A1.27,1.27,0,0,1,0,7.321V6.457A1.27,1.27,0,0,1,1.268,5.188h.293a5.564,5.564,0,0,1,.359-.864l-.207-.207a1.268,1.268,0,0,1,0-1.794l.611-.611a1.268,1.268,0,0,1,1.794,0l.207.207a5.567,5.567,0,0,1,.864-.359V1.268A1.27,1.27,0,0,1,6.457,0h.865A1.27,1.27,0,0,1,8.59,1.268v.293a5.562,5.562,0,0,1,.864.359l.207-.207a1.268,1.268,0,0,1,1.794,0l.611.611a1.268,1.268,0,0,1,0,1.794l-.207.207a5.563,5.563,0,0,1,.359.864h.293a1.27,1.27,0,0,1,1.268,1.268v.865A1.27,1.27,0,0,1,12.509,8.59h-.293a5.564,5.564,0,0,1-.359.864l.207.207a1.268,1.268,0,0,1,0,1.794l-.611.611a1.268,1.268,0,0,1-1.794,0l-.207-.207a5.567,5.567,0,0,1-.864.359v.293A1.27,1.27,0,0,1,7.321,13.778ZM4.459,11.011a4.758,4.758,0,0,0,1.233.512.4.4,0,0,1,.3.391v.6a.462.462,0,0,0,.461.461h.865a.462.462,0,0,0,.461-.461v-.6a.4.4,0,0,1,.3-.391,4.758,4.758,0,0,0,1.233-.512.4.4,0,0,1,.491.062l.422.422a.461.461,0,0,0,.652,0l.612-.612a.461.461,0,0,0,0-.652l-.422-.422a.4.4,0,0,1-.062-.491,4.757,4.757,0,0,0,.512-1.233.4.4,0,0,1,.391-.3h.6a.462.462,0,0,0,.461-.461V6.457A.462.462,0,0,0,12.509,6h-.6a.4.4,0,0,1-.391-.3,4.758,4.758,0,0,0-.512-1.233.4.4,0,0,1,.062-.491l.422-.422a.461.461,0,0,0,0-.652l-.612-.612a.461.461,0,0,0-.652,0l-.422.422a.4.4,0,0,1-.491.062,4.758,4.758,0,0,0-1.233-.512.4.4,0,0,1-.3-.391v-.6A.462.462,0,0,0,7.321.807H6.457A.462.462,0,0,0,6,1.268v.6a.4.4,0,0,1-.3.391,4.758,4.758,0,0,0-1.233.512.4.4,0,0,1-.491-.062l-.422-.422a.461.461,0,0,0-.652,0l-.612.612a.461.461,0,0,0,0,.652l.422.422a.4.4,0,0,1,.062.491,4.757,4.757,0,0,0-.512,1.233.4.4,0,0,1-.391.3h-.6a.462.462,0,0,0-.461.461v.865a.462.462,0,0,0,.461.461h.6a.4.4,0,0,1,.391.3,4.758,4.758,0,0,0,.512,1.233.4.4,0,0,1-.062.491l-.422.422a.461.461,0,0,0,0,.652l.612.612a.461.461,0,0,0,.652,0l.422-.422A.406.406,0,0,1,4.459,11.011Z" class="colorfff svgShape color6cf" data-name="Path 17614"></path><path fill="#001f38" d="M147.6,150.6a3,3,0,1,1,3-3A3,3,0,0,1,147.6,150.6Zm0-5.188a2.19,2.19,0,1,0,2.19,2.19A2.193,2.193,0,0,0,147.6,145.407Z" class="colorfff svgShape color6cf" data-name="Path 17615" transform="translate(-140.709 -140.709)"></path></g></g></svg></svg></g></svg>