<svg xmlns="http://www.w3.org/2000/svg" width="17.75" height="14.102" viewBox="0 0 17.75 14.102"><defs><style>.a{fill:#07b9ec;}</style></defs><path class="a" d="M8.916,39.944a3.855,3.855,0,0,1,4.053,3.711,2.53,2.53,0,0,1-.324,1.336l2.35,2.152a9.051,9.051,0,0,0,2.756-3.488,9.57,9.57,0,0,0-8.916-5.567,11.8,11.8,0,0,0-3.242.52l1.783,1.633A3.79,3.79,0,0,1,8.916,39.944Zm-8.105-2,1.864,1.707.324.3a8.107,8.107,0,0,0-3,3.711,9.57,9.57,0,0,0,8.916,5.567,11.555,11.555,0,0,0,3.566-.594l.324.3,2.35,2.152,1.054-.965L1.864,36.975Zm4.458,4.082,1.216,1.113v.52a2.294,2.294,0,0,0,2.432,2.227,1.718,1.718,0,0,0,.567-.074L10.7,46.921a3.717,3.717,0,0,1-1.783.445,3.855,3.855,0,0,1-4.053-3.711A3.764,3.764,0,0,1,5.268,42.022Zm3.485-.594,2.513,2.3v-.148a2.294,2.294,0,0,0-2.432-2.227C8.834,41.428,8.834,41.428,8.753,41.428Z" transform="translate(0 -36.975)"/></svg>