<?xml version="1.0" encoding="utf-8"?>
<svg width="15" height="15" viewBox="0 0 15 15" xmlns="http://www.w3.org/2000/svg">
  <defs>
    <clipPath id="clip-path">
      <rect id="Rectangle_1729" data-name="Rectangle 1729" width="15" height="15" transform="translate(-0.178)" fill="#fff"/>
    </clipPath>
  </defs>
  <g id="users" transform="translate(0.178)" opacity="0.7" clip-path="url(#clip-path)">
    <g id="customer_4_" data-name="customer (4)" transform="translate(0.822 -31)">
      <path id="Path_18181" data-name="Path 18181" d="M171.209,37.418A2.209,2.209,0,1,0,169,35.209,2.211,2.211,0,0,0,171.209,37.418Zm0-3.656a1.447,1.447,0,1,1-1.447,1.447A1.449,1.449,0,0,1,171.209,33.762Z" transform="translate(-164.709)" style="fill: rgb(97, 186, 215);"/>
      <path id="Path_18182" data-name="Path 18182" d="M378.4,99.793a1.4,1.4,0,1,0-1.4-1.4A1.4,1.4,0,0,0,378.4,99.793Zm0-2.031a.635.635,0,1,1-.635.635A.635.635,0,0,1,378.4,97.762Z" transform="translate(-367.428 -62.375)" style="fill: rgb(97, 186, 215);"/>
      <path id="Path_18183" data-name="Path 18183" d="M11.276,241h-.589a1.727,1.727,0,0,0-1.566,1,3.065,3.065,0,0,0-2.266-1h-.71a3.065,3.065,0,0,0-2.266,1,1.727,1.727,0,0,0-1.566-1H1.724A1.721,1.721,0,0,0,0,242.714v2.773a.746.746,0,0,0,.747.744H3.076a.89.89,0,0,0,.886.813H9.039a.89.89,0,0,0,.886-.812h2.3a.773.773,0,0,0,.773-.77v-2.746A1.721,1.721,0,0,0,11.276,241ZM.762,242.714a.958.958,0,0,1,.962-.952h.589a.958.958,0,0,1,.962.952v.261a6.328,6.328,0,0,0-.2,2.494H.762Zm8.4,3.44a.128.128,0,0,1-.127.128H3.961a.128.128,0,0,1-.127-.128v-2.081a2.314,2.314,0,0,1,2.311-2.311h.71a2.314,2.314,0,0,1,2.311,2.311Zm3.072-.694c0,.013.142.009-2.311.009a6.308,6.308,0,0,0-.2-2.494v-.261a.958.958,0,0,1,.962-.952h.589a.958.958,0,0,1,.962.952Z" transform="translate(0 -202.719)" style="fill: rgb(97, 186, 215);"/>
      <path id="Path_18184" data-name="Path 18184" d="M26.4,99.793A1.4,1.4,0,1,0,25,98.4,1.4,1.4,0,0,0,26.4,99.793Zm0-2.031a.635.635,0,1,1-.635.635A.635.635,0,0,1,26.4,97.762Z" transform="translate(-24.365 -62.375)" style="fill: rgb(97, 186, 215);"/>
    </g>
  </g>
</svg>