<svg id="warnignicon" xmlns="http://www.w3.org/2000/svg" width="29" height="29" viewBox="0 0 29 29">
  <g id="Group_703" data-name="Group 703" opacity="0.25">
    <circle id="Ellipse_202" data-name="Ellipse 202" cx="14.5" cy="14.5" r="14.5" fill="#eb5050" opacity="0.55"/>
  </g>
  <g id="Group_1798" data-name="Group 1798" transform="translate(8.612 8.156)">
    <path id="Path_17604" data-name="Path 17604" d="M218.867,333.382a.687.687,0,0,0,0,1.371.688.688,0,0,0,0-1.371Z" transform="translate(-212.922 -324.649)" fill="#d80000"/>
    <path id="Path_17605" data-name="Path 17605" d="M11.6,32.067a2.673,2.673,0,0,0,0-2.409L7.777,22.1a2.05,2.05,0,0,0-1.831-1.213,2.057,2.057,0,0,0-1.831,1.21L.284,29.664a2.7,2.7,0,0,0,.007,2.423,2.059,2.059,0,0,0,1.826,1.2H9.762A2.074,2.074,0,0,0,11.6,32.067Zm-.831-.547a1.138,1.138,0,0,1-1.009.667H2.114a1.121,1.121,0,0,1-1-.653,1.482,1.482,0,0,1,0-1.33l3.832-7.569a1.086,1.086,0,0,1,2,0l3.83,7.569A1.462,1.462,0,0,1,10.769,31.521Z" transform="translate(0 -20.882)" fill="#d80000"/>
    <path id="Path_17606" data-name="Path 17606" d="M218.221,157.2a.743.743,0,0,0-.5.749c.015.217.028.436.044.653.044.825.087,1.634.131,2.46a.485.485,0,0,0,.481.483.5.5,0,0,0,.481-.5c0-.17,0-.326.015-.5.028-.529.059-1.058.087-1.588.015-.343.044-.686.059-1.028a.9.9,0,0,0-.059-.343A.634.634,0,0,0,218.221,157.2Z" transform="translate(-212.435 -153.34)" fill="#d80000"/>
  </g>
</svg>
