<svg xmlns="http://www.w3.org/2000/svg" xmlns:xlink="http://www.w3.org/1999/xlink" width="22" height="21" viewBox="0 0 22 21"><defs><style>.a{fill:#edeeef;}.b{clip-path:url(#a);}</style><clipPath id="a"><rect class="a" width="22" height="21"/></clipPath></defs><g class="b"><g transform="translate(2 1.352)"><path class="a" d="M218.981,333.382a.756.756,0,1,0,0,1.513.757.757,0,0,0,0-1.513Z" transform="translate(-209.786 -320.329)"/><path class="a" d="M17.947,37.117a3.666,3.666,0,0,0,.008-3.5L12.033,22.643a3.16,3.16,0,0,0-5.665,0L.439,33.628A3.7,3.7,0,0,0,.45,37.146a3.2,3.2,0,0,0,2.825,1.736H15.1A3.225,3.225,0,0,0,17.947,37.117Zm-1.286-.793a1.769,1.769,0,0,1-1.562.967H3.271a1.744,1.744,0,0,1-1.543-.947,2.032,2.032,0,0,1,0-1.931L7.654,23.428a1.725,1.725,0,0,1,3.093,0l5.926,10.985A2.005,2.005,0,0,1,16.662,36.324Z" transform="translate(0 -20.882)"/><path class="a" d="M218.309,157.2a.823.823,0,0,0-.584.826c.018.239.033.481.051.72.051.911.1,1.8.154,2.714a.554.554,0,0,0,.566.533.566.566,0,0,0,.566-.551c0-.188,0-.36.018-.551.033-.584.07-1.168.1-1.752.018-.378.051-.756.07-1.135a.934.934,0,0,0-.07-.378A.758.758,0,0,0,218.309,157.2Z" transform="translate(-209.301 -150.884)"/></g></g></svg>