<?xml version="1.0" encoding="UTF-8" standalone="no" ?>
<!DOCTYPE svg PUBLIC "-//W3C//DTD SVG 1.1//EN" "http://www.w3.org/Graphics/SVG/1.1/DTD/svg11.dtd">
<svg xmlns="http://www.w3.org/2000/svg" xmlns:xlink="http://www.w3.org/1999/xlink" version="1.1" width="1080" height="1080" viewBox="0 0 1080 1080" xml:space="preserve">
<desc>Created with Fabric.js 4.2.0</desc>
<defs>
</defs>
<g transform="matrix(1 0 0 1 540 540)" id="a1f85a20-b69f-488d-9cf9-84d178b93da9"  >
<rect style="stroke: none; stroke-width: 1; stroke-dasharray: none; stroke-linecap: butt; stroke-dashoffset: 0; stroke-linejoin: miter; stroke-miterlimit: 4; fill: rgb(255,255,255); fill-rule: nonzero; opacity: 1;" vector-effect="non-scaling-stroke"  x="-540" y="-540" rx="0" ry="0" width="1080" height="1080" />
</g>
<g transform="matrix(1 0 0 1 540 540)" id="38058d3f-93d3-4229-9a1c-0ec7fed3bd32"  >
</g>
<g transform="matrix(37.57 0 0 37.57 540 540)"  >
<g style="" vector-effect="non-scaling-stroke"   >
		<g transform="matrix(1 0 0 1 -0.93 0.93)" id="Path_18623"  >
<path style="stroke: none; stroke-width: 1; stroke-dasharray: none; stroke-linecap: butt; stroke-dashoffset: 0; stroke-linejoin: miter; stroke-miterlimit: 4; fill: rgb(255,255,255); fill-rule: nonzero; opacity: 1;" vector-effect="non-scaling-stroke"  transform=" translate(-4.32, -72.21)" d="M 0 74.348 L 0 76.536 L 2.188 76.536 L 8.643 70.081 L 6.455 67.893 Z" stroke-linecap="round" />
</g>
		<g transform="matrix(1 0 0 1 3.54 -3.54)" id="Path_18624"  >
<path style="stroke: none; stroke-width: 1; stroke-dasharray: none; stroke-linecap: butt; stroke-dashoffset: 0; stroke-linejoin: miter; stroke-miterlimit: 4; fill: rgb(255,255,255); fill-rule: nonzero; opacity: 1;" vector-effect="non-scaling-stroke"  transform=" translate(-260.38, -1.71)" d="M 261.921 1.533 L 260.559 0.171 C 260.330694508344 -0.056581479110080574 259.96130549165605 -0.0565814791100806 259.733 0.1710000000000003 L 258.665 1.239 L 260.853 3.4270000000000005 L 261.921 2.3590000000000004 C 262.1485814791101 2.13069450834396 262.1485814791101 1.7613054916560402 261.921 1.533 Z" stroke-linecap="round" />
</g>
</g>
</g>
</svg>