<?xml version="1.0" encoding="UTF-8" standalone="no" ?>
<!DOCTYPE svg PUBLIC "-//W3C//DTD SVG 1.1//EN" "http://www.w3.org/Graphics/SVG/1.1/DTD/svg11.dtd">
<svg xmlns="http://www.w3.org/2000/svg" xmlns:xlink="http://www.w3.org/1999/xlink" version="1.1" width="1080" height="1080" viewBox="0 0 1080 1080" xml:space="preserve">
<desc>Created with Fabric.js 4.2.0</desc>
<defs>
</defs>
<g transform="matrix(1 0 0 1 540 540)" id="8a5205ab-3b00-4030-9cb7-962e50ff7369"  >
<rect style="stroke: none; stroke-width: 1; stroke-dasharray: none; stroke-linecap: butt; stroke-dashoffset: 0; stroke-linejoin: miter; stroke-miterlimit: 4; fill: rgb(255,255,255); fill-rule: nonzero; opacity: 1;" vector-effect="non-scaling-stroke"  x="-540" y="-540" rx="0" ry="0" width="1080" height="1080" />
</g>
<g transform="matrix(1 0 0 1 540 540)" id="1e1492b6-61da-424a-920e-c5dbf48bff65"  >
</g>
<g transform="matrix(33.24 0 0 33.24 540 540)"  >
<g style="" vector-effect="non-scaling-stroke"   >
		<g transform="matrix(1 0 0 1 1.82 1.08)"  >
<path style="stroke: none; stroke-width: 1; stroke-dasharray: none; stroke-linecap: butt; stroke-dashoffset: 0; stroke-linejoin: miter; stroke-miterlimit: 4; fill: rgb(255,255,255); fill-rule: nonzero; opacity: 1;" vector-effect="non-scaling-stroke"  transform=" translate(-305.5, -177.69)" d="M 306.185 175.088 L 305.053 175.055 L 304.807 180.303 L 305.939 180.335 Z" stroke-linecap="round" />
</g>
		<g transform="matrix(1 0 0 1 0 1.09)"  >
<rect style="stroke: none; stroke-width: 1; stroke-dasharray: none; stroke-linecap: butt; stroke-dashoffset: 0; stroke-linejoin: miter; stroke-miterlimit: 4; fill: rgb(255,255,255); fill-rule: nonzero; opacity: 1;" vector-effect="non-scaling-stroke"  x="-0.5665" y="-2.6195" rx="0" ry="0" width="1.133" height="5.239" />
</g>
		<g transform="matrix(1 0 0 1 -1.81 1.09)"  >
<path style="stroke: none; stroke-width: 1; stroke-dasharray: none; stroke-linecap: butt; stroke-dashoffset: 0; stroke-linejoin: miter; stroke-miterlimit: 4; fill: rgb(255,255,255); fill-rule: nonzero; opacity: 1;" vector-effect="non-scaling-stroke"  transform=" translate(-159.11, -177.69)" d="M 159.8 180.3 L 159.555 175.05200000000002 L 158.423 175.085 L 158.668 180.333 Z" stroke-linecap="round" />
</g>
		<g transform="matrix(1 0 0 1 0 1.09)"  >
<path style="stroke: none; stroke-width: 1; stroke-dasharray: none; stroke-linecap: butt; stroke-dashoffset: 0; stroke-linejoin: miter; stroke-miterlimit: 4; fill: rgb(255,255,255); fill-rule: nonzero; opacity: 1;" vector-effect="non-scaling-stroke"  transform=" translate(-23.38, -82.28)" d="M 17.379 76.867 L 17.379 77.867 L 18.43 77.867 L 19.264 87.242 C 19.287351490064292 87.50043187698711 19.504517402079436 87.6980528569209 19.764 87.697 L 26.974 87.697 C 27.233482597920563 87.6980528569209 27.450648509935707 87.50043187698711 27.474 87.242 L 28.308 77.867 L 29.376 77.867 L 29.376 76.867 Z M 26.514000000000003 86.697 L 20.227 86.697 L 19.442 77.86500000000001 L 27.3 77.86500000000001 Z" stroke-linecap="round" />
</g>
		<g transform="matrix(1 0 0 1 0 -5.13)"  >
<path style="stroke: none; stroke-width: 1; stroke-dasharray: none; stroke-linecap: butt; stroke-dashoffset: 0; stroke-linejoin: miter; stroke-miterlimit: 4; fill: rgb(255,255,255); fill-rule: nonzero; opacity: 1;" vector-effect="non-scaling-stroke"  transform=" translate(-159.87, -1.37)" d="M 161.721 0 L 158.02100000000002 0 C 157.4998716679072 0.000551167392013329 157.07755116739204 0.4228716679071748 157.07700000000003 0.9440000000000004 L 157.07700000000003 2.738 L 158.21000000000004 2.738 L 158.21000000000004 1.133 L 161.53400000000005 1.133 L 161.53400000000005 2.738 L 162.66700000000006 2.738 L 162.66700000000006 0.944 C 162.6667349237909 0.6933703739343356 162.56691840070908 0.45311120150520656 162.38950895624612 0.2760768298635421 C 162.21209951178318 0.09904245822187763 161.97162962576868 -0.0002653568615859081 161.721 0 Z" stroke-linecap="round" />
</g>
</g>
</g>
</svg>