<svg id="linkedin_3_" data-name="linkedin (3)" xmlns="http://www.w3.org/2000/svg" width="22.622" height="22.622" viewBox="0 0 22.622 22.622">
  <circle id="Ellipse_199" data-name="Ellipse 199" cx="11.311" cy="11.311" r="11.311" fill="#007ab9"/>
  <g id="Group_642" data-name="Group 642" transform="translate(5.458 4.833)">
    <path id="Path_17703" data-name="Path 17703" d="M39.68,31.357V36.02h-2.7V31.67c0-1.092-.39-1.838-1.369-1.838a1.479,1.479,0,0,0-1.387.989,1.85,1.85,0,0,0-.09.659V36.02h-2.7s.036-7.369,0-8.132h2.7v1.152c-.005.009-.013.018-.018.027h.018v-.027A2.685,2.685,0,0,1,36.567,27.7c1.779,0,3.112,1.162,3.112,3.659ZM28.6,23.969a1.409,1.409,0,1,0-.035,2.81h.018a1.409,1.409,0,1,0,.018-2.81ZM27.229,36.02h2.7V27.889h-2.7Z" transform="translate(-27.068 -23.969)" fill="#f1f2f2"/>
  </g>
</svg>
