<svg id="twitter_6_" data-name="twitter (6)" xmlns="http://www.w3.org/2000/svg" width="21.818" height="21.818" viewBox="0 0 21.818 21.818">
  <circle id="Ellipse_171" data-name="Ellipse 171" cx="10.909" cy="10.909" r="10.909" transform="translate(0 0)" fill="#0087ee"/>
  <g id="Group_465" data-name="Group 465" transform="translate(4.881 6.617)">
    <path id="Path_17631" data-name="Path 17631" d="M37.813,35.251a5.2,5.2,0,0,1-1.5.41,2.615,2.615,0,0,0,1.147-1.442,5.22,5.22,0,0,1-1.656.633,2.61,2.61,0,0,0-4.444,2.379,7.4,7.4,0,0,1-5.375-2.725,2.61,2.61,0,0,0,.807,3.482,2.589,2.589,0,0,1-1.181-.327c0,.011,0,.022,0,.033a2.609,2.609,0,0,0,2.092,2.557,2.618,2.618,0,0,1-1.177.045,2.61,2.61,0,0,0,2.436,1.811,5.264,5.264,0,0,1-3.861,1.08,7.416,7.416,0,0,0,11.416-6.248c0-.113,0-.226-.008-.337a5.288,5.288,0,0,0,1.3-1.35Z" transform="translate(-25.103 -34.028)" fill="#f1f2f2"/>
  </g>
</svg>
