<svg id="view" xmlns="http://www.w3.org/2000/svg" width="18" height="11.001" viewBox="0 0 18 11.001">
  <g id="Group_7070" data-name="Group 7070">
    <g id="Group_7069" data-name="Group 7069">
      <path id="Path_18843" data-name="Path 18843" d="M17.886,98c-.161-.211-3.992-5.165-8.886-5.165S.275,97.789.114,98a.551.551,0,0,0,0,.672c.161.211,3.992,5.165,8.886,5.165s8.725-4.954,8.886-5.165A.55.55,0,0,0,17.886,98ZM9,102.7c-3.6,0-6.726-3.288-7.651-4.363C2.272,97.259,5.388,93.973,9,93.973s6.726,3.287,7.651,4.363C15.728,99.412,12.612,102.7,9,102.7Z" transform="translate(0 -92.835)" fill="#07b9ec"/>
    </g>
  </g>
  <g id="Group_7072" data-name="Group 7072" transform="translate(6.517 3.014)">
    <g id="Group_7071" data-name="Group 7071" transform="translate(0 0)">
      <path id="Path_18844" data-name="Path 18844" d="M157.205,154.725a2.483,2.483,0,1,0,2.483,2.483A2.486,2.486,0,0,0,157.205,154.725Zm0,4.138a1.655,1.655,0,1,1,1.655-1.655A1.657,1.657,0,0,1,157.205,158.863Z" transform="translate(-154.722 -154.725)" fill="#07b9ec"/>
    </g>
  </g>
</svg>
